<svg viewBox="264.1636690647482 1663.2000000000003 2257.1942446043167 1539.0000000000002" xmlns:xlink="http://www.w3.org/1999/xlink" xmlns="http://www.w3.org/2000/svg" style="max-height: 500px" width="2257.1942446043167" height="1539.0000000000002">

<path d="M 4129.140625 2534.679688 C 4139.710938 2534.679688 4148.28125 2592.101562 4148.28125 2662.929688 C 4148.28125 2674.28125 4148.050781 2685.28125 4147.640625 2695.761719 C 4141.648438 2694.609375 4135.46875 2694 4129.140625 2694 C 4122.808594 2694 4116.628906 2694.609375 4110.628906 2695.761719 C 4110.21875 2685.28125 4110 2674.28125 4110 2662.929688 C 4110 2592.101562 4118.570312 2534.679688 4129.140625 2534.679688" fill-opacity="1" fill="rgb(0%, 0%, 0%)" fill-rule="evenodd"/>
<path d="M 4195.53125 2543.421875 C 4205.738281 2546.148438 4199.148438 2603.839844 4180.820312 2672.25 C 4177.878906 2683.210938 4174.820312 2693.78125 4171.710938 2703.800781 C 4160.78125 2698.460938 4148.710938 2695.121094 4135.960938 2694.238281 C 4138.269531 2684 4140.910156 2673.308594 4143.851562 2662.351562 C 4162.179688 2593.929688 4185.320312 2540.679688 4195.53125 2543.421875" fill-opacity="1" fill="rgb(0%, 0%, 0%)" fill-rule="evenodd"/>
<path d="M 4257.390625 2569.039062 C 4266.539062 2574.328125 4245.25 2628.339844 4209.839844 2689.679688 C 4204.160156 2699.511719 4198.46875 2708.941406 4192.871094 2717.808594 C 4183.570312 2709.730469 4172.71875 2703.378906 4160.828125 2699.28125 C 4165.710938 2690 4171.019531 2680.371094 4176.691406 2670.539062 C 4212.101562 2609.199219 4248.230469 2563.761719 4257.390625 2569.039062" fill-opacity="1" fill="rgb(0%, 0%, 0%)" fill-rule="evenodd"/>
<path d="M 4310.511719 2609.808594 C 4317.988281 2617.28125 4283.441406 2663.941406 4233.359375 2714.03125 C 4225.328125 2722.050781 4217.390625 2729.679688 4209.691406 2736.800781 C 4202.71875 2726.488281 4193.828125 2717.601562 4183.519531 2710.628906 C 4190.640625 2702.921875 4198.269531 2694.988281 4206.289062 2686.960938 C 4256.378906 2636.871094 4303.039062 2602.328125 4310.511719 2609.808594" fill-opacity="1" fill="rgb(0%, 0%, 0%)" fill-rule="evenodd"/>
<path d="M 4351.28125 2662.929688 C 4356.558594 2672.078125 4311.121094 2708.210938 4249.78125 2743.628906 C 4239.949219 2749.300781 4230.308594 2754.609375 4221.03125 2759.488281 C 4216.929688 2747.601562 4210.589844 2736.75 4202.511719 2727.449219 C 4211.378906 2721.851562 4220.800781 2716.160156 4230.640625 2710.480469 C 4291.980469 2675.070312 4345.988281 2653.78125 4351.28125 2662.929688" fill-opacity="1" fill="rgb(0%, 0%, 0%)" fill-rule="evenodd"/>
<path d="M 4376.898438 2724.789062 C 4379.640625 2735 4326.390625 2758.140625 4257.96875 2776.46875 C 4247 2779.410156 4236.308594 2782.050781 4226.078125 2784.359375 C 4225.199219 2771.609375 4221.851562 2759.539062 4216.519531 2748.609375 C 4226.539062 2745.5 4237.109375 2742.441406 4248.070312 2739.5 C 4316.480469 2721.171875 4374.160156 2714.578125 4376.898438 2724.789062" fill-opacity="1" fill="rgb(0%, 0%, 0%)" fill-rule="evenodd"/>
<path d="M 4385.640625 2791.179688 C 4385.640625 2801.75 4328.21875 2810.320312 4257.390625 2810.320312 C 4246.039062 2810.320312 4235.039062 2810.101562 4224.558594 2809.679688 C 4225.710938 2803.691406 4226.320312 2797.511719 4226.320312 2791.179688 C 4226.320312 2784.851562 4225.710938 2778.671875 4224.558594 2772.679688 C 4235.039062 2772.261719 4246.039062 2772.039062 4257.390625 2772.039062 C 4328.21875 2772.039062 4385.640625 2780.609375 4385.640625 2791.179688" fill-opacity="1" fill="rgb(0%, 0%, 0%)" fill-rule="evenodd"/>
<path d="M 4376.898438 2857.570312 C 4374.160156 2867.78125 4316.480469 2861.191406 4248.070312 2842.859375 C 4237.109375 2839.921875 4226.539062 2836.859375 4216.519531 2833.75 C 4221.859375 2822.828125 4225.199219 2810.75 4226.078125 2798 C 4236.320312 2800.308594 4247 2802.949219 4257.96875 2805.890625 C 4326.390625 2824.21875 4379.640625 2847.359375 4376.898438 2857.570312" fill-opacity="1" fill="rgb(0%, 0%, 0%)" fill-rule="evenodd"/>
<path d="M 4351.28125 2919.429688 C 4345.988281 2928.589844 4291.980469 2907.300781 4230.640625 2871.878906 C 4220.800781 2866.199219 4211.378906 2860.511719 4202.511719 2854.910156 C 4210.589844 2845.609375 4216.929688 2834.761719 4221.03125 2822.871094 C 4230.308594 2827.75 4239.949219 2833.058594 4249.78125 2838.730469 C 4311.121094 2874.148438 4356.558594 2910.28125 4351.28125 2919.429688" fill-opacity="1" fill="rgb(0%, 0%, 0%)" fill-rule="evenodd"/>
<path d="M 4310.511719 2972.550781 C 4303.039062 2980.03125 4256.378906 2945.488281 4206.289062 2895.398438 C 4198.269531 2887.371094 4190.640625 2879.441406 4183.519531 2871.730469 C 4193.828125 2864.761719 4202.71875 2855.871094 4209.691406 2845.570312 C 4217.390625 2852.691406 4225.328125 2860.308594 4233.359375 2868.339844 C 4283.441406 2918.421875 4317.988281 2965.078125 4310.511719 2972.550781" fill-opacity="1" fill="rgb(0%, 0%, 0%)" fill-rule="evenodd"/>
<path d="M 4257.390625 3013.320312 C 4248.238281 3018.601562 4212.109375 2973.160156 4176.691406 2911.820312 C 4171.019531 2901.988281 4165.710938 2892.359375 4160.828125 2883.078125 C 4172.71875 2878.980469 4183.570312 2872.640625 4192.871094 2864.550781 C 4198.46875 2873.429688 4204.160156 2882.851562 4209.839844 2892.679688 C 4245.25 2954.019531 4266.539062 3008.03125 4257.390625 3013.320312" fill-opacity="1" fill="rgb(0%, 0%, 0%)" fill-rule="evenodd"/>
<path d="M 4195.53125 3038.941406 C 4185.320312 3041.679688 4162.179688 2988.429688 4143.851562 2920.011719 C 4140.910156 2909.050781 4138.269531 2898.359375 4135.960938 2888.121094 C 4148.710938 2887.238281 4160.78125 2883.898438 4171.710938 2878.558594 C 4174.820312 2888.578125 4177.878906 2899.148438 4180.820312 2910.109375 C 4199.148438 2978.53125 4205.738281 3036.210938 4195.53125 3038.941406" fill-opacity="1" fill="rgb(0%, 0%, 0%)" fill-rule="evenodd"/>
<path d="M 4129.140625 3047.679688 C 4118.570312 3047.679688 4110 2990.261719 4110 2919.429688 C 4110 2908.078125 4110.21875 2897.078125 4110.628906 2886.601562 C 4116.628906 2887.75 4122.808594 2888.371094 4129.140625 2888.371094 C 4135.46875 2888.371094 4141.648438 2887.75 4147.640625 2886.601562 C 4148.058594 2897.078125 4148.28125 2908.078125 4148.28125 2919.429688 C 4148.28125 2990.261719 4139.710938 3047.679688 4129.140625 3047.679688" fill-opacity="1" fill="rgb(0%, 0%, 0%)" fill-rule="evenodd"/>
<path d="M 4062.75 3038.941406 C 4052.539062 3036.210938 4059.128906 2978.53125 4077.460938 2910.109375 C 4080.390625 2899.148438 4083.449219 2888.578125 4086.570312 2878.558594 C 4097.488281 2883.898438 4109.570312 2887.238281 4122.320312 2888.121094 C 4120 2898.359375 4117.371094 2909.050781 4114.429688 2920.019531 C 4096.101562 2988.429688 4072.960938 3041.679688 4062.75 3038.941406" fill-opacity="1" fill="rgb(0%, 0%, 0%)" fill-rule="evenodd"/>
<path d="M 4000.890625 3013.320312 C 3991.730469 3008.03125 4013.019531 2954.019531 4048.441406 2892.679688 C 4054.121094 2882.851562 4059.808594 2873.429688 4065.410156 2864.550781 C 4074.710938 2872.640625 4085.558594 2878.980469 4097.449219 2883.078125 C 4092.570312 2892.359375 4087.261719 2901.988281 4081.589844 2911.820312 C 4046.171875 2973.160156 4010.039062 3018.601562 4000.890625 3013.320312" fill-opacity="1" fill="rgb(0%, 0%, 0%)" fill-rule="evenodd"/>
<path d="M 3947.761719 2972.558594 C 3940.289062 2965.078125 3974.828125 2918.421875 4024.921875 2868.328125 C 4032.941406 2860.308594 4040.878906 2852.691406 4048.578125 2845.570312 C 4055.550781 2855.871094 4064.449219 2864.761719 4074.75 2871.730469 C 4067.628906 2879.441406 4060.011719 2887.371094 4051.980469 2895.398438 C 4001.898438 2945.488281 3955.238281 2980.03125 3947.761719 2972.558594" fill-opacity="1" fill="rgb(0%, 0%, 0%)" fill-rule="evenodd"/>
<path d="M 3907 2919.429688 C 3901.71875 2910.28125 3947.160156 2874.148438 4008.5 2838.730469 C 4018.328125 2833.058594 4027.960938 2827.75 4037.238281 2822.871094 C 4041.339844 2834.761719 4047.679688 2845.609375 4055.761719 2854.910156 C 4046.890625 2860.511719 4037.46875 2866.199219 4027.640625 2871.878906 C 3966.300781 2907.300781 3912.289062 2928.589844 3907 2919.429688" fill-opacity="1" fill="rgb(0%, 0%, 0%)" fill-rule="evenodd"/>
<path d="M 3881.378906 2857.570312 C 3878.640625 2847.359375 3931.878906 2824.21875 4000.300781 2805.890625 C 4011.269531 2802.949219 4021.960938 2800.308594 4032.191406 2798 C 4033.078125 2810.75 4036.421875 2822.828125 4041.75 2833.75 C 4031.738281 2836.859375 4021.171875 2839.921875 4010.210938 2842.859375 C 3941.789062 2861.191406 3884.109375 2867.78125 3881.378906 2857.570312" fill-opacity="1" fill="rgb(0%, 0%, 0%)" fill-rule="evenodd"/>
<path d="M 3872.640625 2791.179688 C 3872.640625 2780.609375 3930.050781 2772.039062 4000.890625 2772.039062 C 4012.238281 2772.039062 4023.238281 2772.261719 4033.71875 2772.679688 C 4032.558594 2778.671875 4031.949219 2784.851562 4031.949219 2791.179688 C 4031.949219 2797.511719 4032.558594 2803.691406 4033.71875 2809.691406 C 4023.238281 2810.101562 4012.238281 2810.320312 4000.890625 2810.320312 C 3930.050781 2810.320312 3872.640625 2801.75 3872.640625 2791.179688" fill-opacity="1" fill="rgb(0%, 0%, 0%)" fill-rule="evenodd"/>
<path d="M 3881.378906 2724.789062 C 3884.109375 2714.578125 3941.789062 2721.171875 4010.210938 2739.5 C 4021.171875 2742.441406 4031.738281 2745.5 4041.75 2748.609375 C 4036.421875 2759.53125 4033.078125 2771.609375 4032.191406 2784.359375 C 4021.960938 2782.050781 4011.269531 2779.410156 4000.300781 2776.46875 C 3931.878906 2758.140625 3878.640625 2735 3881.378906 2724.789062" fill-opacity="1" fill="rgb(0%, 0%, 0%)" fill-rule="evenodd"/>
<path d="M 3907 2662.929688 C 3912.289062 2653.78125 3966.289062 2675.070312 4027.640625 2710.480469 C 4037.46875 2716.160156 4046.890625 2721.851562 4055.761719 2727.449219 C 4047.679688 2736.75 4041.339844 2747.601562 4037.238281 2759.488281 C 4027.960938 2754.609375 4018.328125 2749.300781 4008.5 2743.628906 C 3947.160156 2708.210938 3901.71875 2672.078125 3907 2662.929688" fill-opacity="1" fill="rgb(0%, 0%, 0%)" fill-rule="evenodd"/>
<path d="M 3947.761719 2609.808594 C 3955.238281 2602.328125 4001.898438 2636.871094 4051.980469 2686.960938 C 4060.011719 2694.988281 4067.628906 2702.921875 4074.75 2710.628906 C 4064.449219 2717.601562 4055.550781 2726.488281 4048.578125 2736.800781 C 4040.878906 2729.679688 4032.941406 2722.050781 4024.921875 2714.03125 C 3974.828125 2663.941406 3940.289062 2617.28125 3947.761719 2609.808594" fill-opacity="1" fill="rgb(0%, 0%, 0%)" fill-rule="evenodd"/>
<path d="M 4000.890625 2569.039062 C 4010.039062 2563.761719 4046.171875 2609.199219 4081.589844 2670.539062 C 4087.261719 2680.371094 4092.570312 2690 4097.449219 2699.28125 C 4085.558594 2703.378906 4074.710938 2709.730469 4065.410156 2717.808594 C 4059.808594 2708.941406 4054.121094 2699.511719 4048.441406 2689.679688 C 4013.019531 2628.339844 3991.730469 2574.328125 4000.890625 2569.039062" fill-opacity="1" fill="rgb(0%, 0%, 0%)" fill-rule="evenodd"/>
<path d="M 4062.75 2543.421875 C 4072.960938 2540.679688 4096.101562 2593.929688 4114.429688 2662.351562 C 4117.371094 2673.308594 4120 2684 4122.320312 2694.238281 C 4109.570312 2695.121094 4097.488281 2698.460938 4086.570312 2703.800781 C 4083.460938 2693.78125 4080.390625 2683.210938 4077.460938 2672.25 C 4059.128906 2603.828125 4052.539062 2546.148438 4062.75 2543.421875" fill-opacity="1" fill="rgb(0%, 0%, 0%)" fill-rule="evenodd"/>
<path d="M 4188.558594 2731.761719 C 4190.96875 2734.171875 4193.199219 2736.691406 4195.261719 2739.300781 L 4187.589844 2746.96875 L 4173.339844 2732.730469 L 4181.019531 2725.058594 C 4183.628906 2727.109375 4186.148438 2729.351562 4188.558594 2731.761719 Z M 4168.101562 2727.488281 L 4153.859375 2713.25 L 4155.679688 2711.429688 C 4162.371094 2713.648438 4168.839844 2716.738281 4174.910156 2720.679688 Z M 4199.628906 2745.410156 C 4203.578125 2751.480469 4206.671875 2757.941406 4208.890625 2764.640625 L 4207.070312 2766.460938 L 4192.828125 2752.21875 Z M 4212.730469 2782.601562 C 4213.308594 2788.308594 4213.308594 2794.058594 4212.730469 2799.761719 L 4207.070312 2805.421875 L 4192.828125 2791.179688 L 4207.070312 2776.941406 Z M 4187.589844 2785.941406 L 4173.339844 2771.699219 L 4187.589844 2757.460938 L 4201.828125 2771.699219 Z M 4168.101562 2766.460938 L 4153.859375 2752.21875 L 4168.101562 2737.96875 L 4182.351562 2752.21875 Z M 4148.621094 2746.96875 L 4134.378906 2732.730469 L 4148.621094 2718.488281 L 4162.859375 2732.730469 Z M 4129.140625 2727.488281 L 4114.898438 2713.25 L 4120.558594 2707.589844 C 4126.261719 2707.011719 4132.011719 2707 4137.71875 2707.589844 L 4143.378906 2713.25 Z M 4208.890625 2817.71875 C 4206.671875 2824.410156 4203.578125 2830.878906 4199.628906 2836.949219 L 4192.828125 2830.140625 L 4207.070312 2815.898438 Z M 4187.589844 2824.898438 L 4173.339844 2810.660156 L 4187.589844 2796.421875 L 4201.828125 2810.660156 Z M 4168.101562 2805.421875 L 4153.859375 2791.179688 L 4168.101562 2776.941406 L 4182.351562 2791.179688 Z M 4148.621094 2785.941406 L 4134.378906 2771.699219 L 4148.621094 2757.460938 L 4162.859375 2771.699219 Z M 4129.140625 2766.460938 L 4114.898438 2752.21875 L 4129.140625 2737.96875 L 4143.378906 2752.21875 Z M 4109.660156 2746.96875 L 4095.410156 2732.730469 L 4109.660156 2718.488281 L 4123.898438 2732.730469 Z M 4090.171875 2727.488281 L 4083.371094 2720.691406 C 4089.441406 2716.738281 4095.910156 2713.648438 4102.601562 2711.429688 L 4104.421875 2713.25 Z M 4195.261719 2843.058594 C 4193.199219 2845.671875 4190.96875 2848.191406 4188.558594 2850.601562 C 4186.148438 2853.011719 4183.628906 2855.25 4181.019531 2857.300781 L 4173.339844 2849.628906 L 4187.589844 2835.390625 Z M 4168.101562 2844.390625 L 4153.859375 2830.140625 L 4168.101562 2815.898438 L 4182.351562 2830.140625 Z M 4148.621094 2824.898438 L 4134.378906 2810.660156 L 4148.621094 2796.421875 L 4162.859375 2810.660156 Z M 4129.140625 2805.421875 L 4114.898438 2791.179688 L 4129.140625 2776.941406 L 4143.378906 2791.179688 Z M 4109.660156 2785.941406 L 4095.410156 2771.699219 L 4109.660156 2757.460938 L 4123.898438 2771.699219 Z M 4090.171875 2766.460938 L 4075.929688 2752.21875 L 4090.171875 2737.96875 L 4104.421875 2752.21875 Z M 4070.691406 2746.96875 L 4063.019531 2739.300781 C 4065.070312 2736.691406 4067.308594 2734.171875 4069.71875 2731.761719 C 4072.128906 2729.351562 4074.648438 2727.121094 4077.261719 2725.058594 L 4084.929688 2732.730469 Z M 4174.910156 2861.679688 C 4168.839844 2865.628906 4162.371094 2868.710938 4155.679688 2870.929688 L 4153.859375 2869.109375 L 4168.101562 2854.871094 Z M 4148.621094 2863.871094 L 4134.378906 2849.628906 L 4148.621094 2835.390625 L 4162.859375 2849.628906 Z M 4129.140625 2844.390625 L 4114.898438 2830.148438 L 4129.140625 2815.898438 L 4143.378906 2830.148438 Z M 4109.660156 2824.898438 L 4095.410156 2810.660156 L 4109.660156 2796.421875 L 4123.898438 2810.660156 Z M 4090.171875 2805.421875 L 4075.929688 2791.179688 L 4090.171875 2776.941406 L 4104.421875 2791.179688 Z M 4070.691406 2785.941406 L 4056.449219 2771.699219 L 4070.691406 2757.460938 L 4084.929688 2771.699219 Z M 4051.210938 2766.460938 L 4049.390625 2764.640625 C 4051.609375 2757.941406 4054.691406 2751.480469 4058.640625 2745.410156 L 4065.449219 2752.21875 Z M 4137.710938 2874.78125 C 4132.011719 2875.359375 4126.269531 2875.359375 4120.558594 2874.78125 L 4114.898438 2869.109375 L 4129.140625 2854.871094 L 4143.378906 2869.109375 Z M 4109.660156 2863.871094 L 4095.410156 2849.628906 L 4109.660156 2835.390625 L 4123.898438 2849.628906 Z M 4090.171875 2844.390625 L 4075.929688 2830.140625 L 4090.171875 2815.898438 L 4104.421875 2830.140625 Z M 4070.691406 2824.898438 L 4056.449219 2810.660156 L 4070.691406 2796.421875 L 4084.929688 2810.660156 Z M 4051.210938 2805.421875 L 4045.539062 2799.75 C 4044.960938 2794.050781 4044.960938 2788.308594 4045.539062 2782.601562 L 4051.210938 2776.941406 L 4065.449219 2791.179688 Z M 4102.601562 2870.929688 C 4095.898438 2868.710938 4089.441406 2865.621094 4083.371094 2861.679688 L 4090.171875 2854.871094 L 4104.421875 2869.109375 Z M 4077.261719 2857.300781 C 4074.648438 2855.25 4072.128906 2853.011719 4069.71875 2850.601562 C 4067.308594 2848.191406 4065.070312 2845.671875 4063.019531 2843.058594 L 4070.691406 2835.390625 L 4084.929688 2849.628906 Z M 4058.640625 2836.949219 C 4054.691406 2830.878906 4051.609375 2824.421875 4049.390625 2817.71875 L 4051.210938 2815.898438 L 4065.449219 2830.140625 L 4058.640625 2836.949219" fill-opacity="1" fill="rgb(0%, 0%, 0%)" fill-rule="evenodd"/>
<path d="M 3542.71875 1598.660156 L 3572.628906 1507.378906 L 3532.179688 1507.378906 C 3526.308594 1507.378906 3521.5 1502.570312 3521.5 1496.699219 C 3521.5 1490.820312 3526.308594 1486.011719 3532.179688 1486.011719 L 3737.128906 1486.011719 C 3738.121094 1486.011719 3739.078125 1486.148438 3739.988281 1486.398438 L 3751.03125 1486.429688 L 3513.949219 1395.148438 L 3477.050781 1507.789062 L 3440.140625 1620.441406 L 3535.589844 1620.441406 L 3542.71875 1598.660156" fill-opacity="1" fill="rgb(5.447388%, 5.892944%, 5.529785%)" fill-rule="evenodd"/>
<path d="M 3647.25 1600.121094 L 3738.519531 1630.019531 L 3738.519531 1589.570312 C 3738.519531 1583.699219 3743.328125 1578.890625 3749.210938 1578.890625 C 3755.089844 1578.890625 3759.890625 1583.699219 3759.890625 1589.570312 L 3759.890625 1794.519531 C 3759.890625 1795.511719 3759.761719 1796.46875 3759.5 1797.378906 L 3759.46875 1808.421875 L 3850.761719 1571.339844 L 3738.109375 1534.441406 L 3625.460938 1497.53125 L 3625.460938 1592.980469 L 3647.25 1600.121094" fill-opacity="1" fill="rgb(5.447388%, 5.892944%, 5.529785%)" fill-rule="evenodd"/>
<path d="M 3645.789062 1704.640625 L 3615.878906 1795.910156 L 3656.328125 1795.910156 C 3662.210938 1795.910156 3667.019531 1800.71875 3667.019531 1806.601562 C 3667.019531 1812.480469 3662.210938 1817.289062 3656.328125 1817.289062 L 3451.390625 1817.289062 C 3450.390625 1817.289062 3449.429688 1817.148438 3448.519531 1816.890625 L 3437.480469 1816.871094 L 3674.558594 1908.148438 L 3711.46875 1795.5 L 3748.371094 1682.859375 L 3652.921875 1682.859375 L 3645.789062 1704.640625" fill-opacity="1" fill="rgb(5.447388%, 5.892944%, 5.529785%)" fill-rule="evenodd"/>
<path d="M 3541.269531 1703.179688 L 3449.988281 1673.269531 L 3449.988281 1713.71875 C 3449.988281 1719.601562 3445.179688 1724.410156 3439.300781 1724.410156 C 3433.429688 1724.410156 3428.621094 1719.601562 3428.621094 1713.71875 L 3428.621094 1508.78125 C 3428.621094 1507.789062 3428.75 1506.820312 3429.011719 1505.910156 L 3429.039062 1494.871094 L 3337.75 1731.949219 L 3450.398438 1768.859375 L 3563.050781 1805.761719 L 3563.050781 1710.320312 L 3541.269531 1703.179688" fill-opacity="1" fill="rgb(5.447388%, 5.892944%, 5.529785%)" fill-rule="evenodd"/>
<path d="M 2809.988281 2415.378906 C 2809.988281 2346.980469 2809.988281 2278.570312 2809.988281 2210.160156 L 2745.691406 2173.039062 C 2708.480469 2194.519531 2671.269531 2216.011719 2634.058594 2237.488281 L 2714.128906 2283.71875 L 2729.921875 2274.609375 L 2729.921875 2357.210938 L 2809.988281 2415.378906" fill-opacity="1" fill="rgb(5.447388%, 5.892944%, 5.529785%)" fill-rule="evenodd"/>
<path d="M 2919.738281 2357.210938 L 2839.671875 2415.378906 C 2839.671875 2346.980469 2839.671875 2278.570312 2839.671875 2210.160156 L 2903.96875 2173.039062 C 2941.179688 2194.519531 2978.390625 2216.011719 3015.601562 2237.488281 L 2935.53125 2283.71875 L 2919.738281 2274.609375 L 2919.738281 2357.210938" fill-opacity="1" fill="rgb(5.447388%, 5.892944%, 5.529785%)" fill-rule="evenodd"/>
<path d="M 2753.519531 2166.011719 L 2826.621094 2112.910156 L 2899.601562 2165.929688 L 2899.601562 2080.46875 L 2826.621094 2027.449219 L 2753.519531 2080.558594 L 2750.058594 2083.070312 L 2750.058594 2168.53125 L 2753.519531 2166.011719" fill-opacity="1" fill="rgb(5.447388%, 5.892944%, 5.529785%)" fill-rule="evenodd"/>
<path d="M 2952.460938 1401.648438 C 3012.710938 1506.011719 3072.960938 1610.371094 3133.210938 1714.730469 L 3127 1840.089844 L 2729.53125 1840.089844 L 2834.988281 1908.148438 L 3196.488281 1908.148438 C 3202.441406 1908.148438 3207.46875 1904.289062 3209.011719 1898.539062 C 3210.550781 1892.789062 3208.121094 1886.929688 3202.96875 1883.949219 L 3127 1840.089844 L 3027.621094 1667.96875 L 2928.261719 1495.859375 C 2928.261719 1466.621094 2928.261719 1437.378906 2928.261719 1408.128906 C 2928.261719 1402.179688 2932.121094 1397.148438 2937.871094 1395.601562 C 2943.621094 1394.058594 2949.480469 1396.488281 2952.460938 1401.648438 Z M 2729.519531 1840.078125 L 2653.550781 1883.941406 C 2648.390625 1886.921875 2642.101562 1886.089844 2637.890625 1881.878906 C 2633.679688 1877.671875 2632.859375 1871.378906 2635.828125 1866.230469 L 2816.578125 1553.160156 L 2928.261719 1495.859375 L 2828.890625 1667.980469 L 2729.519531 1840.078125" fill-opacity="1" fill="rgb(5.447388%, 5.892944%, 5.529785%)" fill-rule="evenodd"/>
<path transform="matrix(0.1, 0, 0, -0.1, 0, 4500)" d="M 29282.617188 29438.515625 L 27817.304688 26900.585938 L 30747.890625 26900.585938 Z M 29282.617188 29438.515625" stroke-miterlimit="22.9256" stroke-opacity="1" stroke="rgb(13.729858%, 12.159729%, 12.548828%)" stroke-linejoin="round" stroke-linecap="round" stroke-width="2.16" fill-opacity="1" fill="rgb(5.447388%, 5.892944%, 5.529785%)" fill-rule="evenodd"/>
<path d="M 3059.351562 828.511719 C 3080.351562 828.511719 3097.378906 845.539062 3097.378906 866.550781 C 3097.378906 887.550781 3080.351562 904.578125 3059.351562 904.578125 C 3038.339844 904.578125 3021.308594 887.550781 3021.308594 866.550781 C 3021.308594 845.539062 3038.339844 828.511719 3059.351562 828.511719" fill-opacity="1" fill="rgb(5.447388%, 5.892944%, 5.529785%)" fill-rule="evenodd"/>
<path d="M 3261.628906 866.550781 C 3261.628906 861.230469 3265.941406 856.921875 3271.261719 856.921875 C 3276.570312 856.921875 3280.878906 861.230469 3280.878906 866.550781 C 3280.878906 927.71875 3256.089844 983.109375 3216 1023.199219 C 3175.910156 1063.289062 3120.519531 1088.078125 3059.351562 1088.078125 C 2998.171875 1088.078125 2942.789062 1063.289062 2902.699219 1023.199219 C 2862.609375 983.109375 2837.808594 927.71875 2837.808594 866.550781 C 2837.808594 805.371094 2862.609375 749.980469 2902.699219 709.898438 C 2942.789062 669.808594 2998.171875 645.011719 3059.351562 645.011719 C 3064.660156 645.011719 3068.96875 649.320312 3068.96875 654.640625 C 3068.96875 659.949219 3064.660156 664.261719 3059.351562 664.261719 C 3003.488281 664.261719 2952.910156 686.898438 2916.308594 723.511719 C 2879.699219 760.109375 2857.058594 810.691406 2857.058594 866.550781 C 2857.058594 922.410156 2879.699219 972.980469 2916.308594 1009.578125 C 2952.910156 1046.191406 3003.488281 1068.828125 3059.351562 1068.828125 C 3115.210938 1068.828125 3165.78125 1046.191406 3202.378906 1009.578125 C 3238.988281 972.980469 3261.628906 922.410156 3261.628906 866.550781" fill-opacity="1" fill="rgb(5.447388%, 5.892944%, 5.529785%)" fill-rule="nonzero"/>
<path d="M 3059.351562 1231.839844 C 3064.660156 1231.839844 3068.96875 1236.148438 3068.96875 1241.46875 C 3068.96875 1246.78125 3064.660156 1251.089844 3059.351562 1251.089844 C 2953.160156 1251.089844 2857.019531 1208.050781 2787.429688 1138.460938 C 2717.839844 1068.871094 2674.800781 972.738281 2674.800781 866.550781 C 2674.800781 760.359375 2717.839844 664.21875 2787.429688 594.628906 C 2857.019531 525.039062 2953.160156 482 3059.351562 482 C 3165.53125 482 3261.671875 525.039062 3331.261719 594.628906 C 3400.851562 664.21875 3443.890625 760.359375 3443.890625 866.550781 C 3443.890625 871.859375 3439.578125 876.171875 3434.269531 876.171875 C 3428.949219 876.171875 3424.640625 871.859375 3424.640625 866.550781 C 3424.640625 765.671875 3383.75 674.351562 3317.648438 608.238281 C 3251.550781 542.140625 3160.21875 501.25 3059.351562 501.25 C 2958.46875 501.25 2867.148438 542.140625 2801.039062 608.238281 C 2734.941406 674.351562 2694.050781 765.671875 2694.050781 866.550781 C 2694.050781 967.421875 2734.941406 1058.738281 2801.039062 1124.851562 C 2867.148438 1190.949219 2958.46875 1231.839844 3059.351562 1231.839844" fill-opacity="1" fill="rgb(5.447388%, 5.892944%, 5.529785%)" fill-rule="nonzero"/>
<path d="M 3068.96875 740.890625 C 3068.96875 746.210938 3064.660156 750.519531 3059.351562 750.519531 C 3054.03125 750.519531 3049.71875 746.210938 3049.71875 740.890625 L 3049.71875 358.5 C 3049.71875 353.191406 3054.03125 348.871094 3059.351562 348.871094 C 3064.660156 348.871094 3068.96875 353.191406 3068.96875 358.5 L 3068.96875 740.890625" fill-opacity="1" fill="rgb(5.447388%, 5.892944%, 5.529785%)" fill-rule="nonzero"/>
<path d="M 3185 876.171875 C 3179.679688 876.171875 3175.371094 871.859375 3175.371094 866.550781 C 3175.371094 861.230469 3179.679688 856.921875 3185 856.921875 L 3567.390625 856.921875 C 3572.710938 856.921875 3577.019531 861.230469 3577.019531 866.550781 C 3577.019531 871.859375 3572.710938 876.171875 3567.390625 876.171875 L 3185 876.171875" fill-opacity="1" fill="rgb(5.447388%, 5.892944%, 5.529785%)" fill-rule="nonzero"/>
<path d="M 3049.71875 992.199219 C 3049.71875 986.878906 3054.03125 982.570312 3059.351562 982.570312 C 3064.660156 982.570312 3068.96875 986.878906 3068.96875 992.199219 L 3068.96875 1374.589844 C 3068.96875 1379.910156 3064.660156 1384.21875 3059.351562 1384.21875 C 3054.03125 1384.21875 3049.71875 1379.910156 3049.71875 1374.589844 L 3049.71875 992.199219" fill-opacity="1" fill="rgb(5.447388%, 5.892944%, 5.529785%)" fill-rule="nonzero"/>
<path d="M 2935.050781 856.921875 C 2940.371094 856.921875 2944.679688 861.230469 2944.679688 866.550781 C 2944.679688 871.859375 2940.371094 876.171875 2935.050781 876.171875 L 2551.300781 876.171875 C 2545.988281 876.171875 2541.679688 871.859375 2541.679688 866.550781 C 2541.679688 861.230469 2545.988281 856.921875 2551.300781 856.921875 L 2935.050781 856.921875" fill-opacity="1" fill="rgb(5.447388%, 5.892944%, 5.529785%)" fill-rule="nonzero"/>
<path d="M 2943.320312 866.550781 C 2943.320312 871.859375 2939.011719 876.171875 2933.691406 876.171875 C 2928.378906 876.171875 2924.070312 871.859375 2924.070312 866.550781 C 2924.070312 829.191406 2939.210938 795.371094 2963.691406 770.890625 C 2988.171875 746.410156 3021.988281 731.269531 3059.351562 731.269531 C 3096.699219 731.269531 3130.519531 746.410156 3155 770.890625 C 3179.480469 795.371094 3194.621094 829.191406 3194.621094 866.550781 C 3194.621094 903.898438 3179.480469 937.71875 3155 962.199219 C 3130.519531 986.679688 3096.699219 1001.820312 3059.351562 1001.820312 C 3054.03125 1001.820312 3049.71875 997.511719 3049.71875 992.199219 C 3049.71875 986.878906 3054.03125 982.570312 3059.351562 982.570312 C 3091.390625 982.570312 3120.390625 969.578125 3141.390625 948.589844 C 3162.378906 927.589844 3175.371094 898.589844 3175.371094 866.550781 C 3175.371094 834.511719 3162.378906 805.5 3141.390625 784.5 C 3120.390625 763.511719 3091.390625 750.519531 3059.351562 750.519531 C 3027.308594 750.519531 2998.300781 763.511719 2977.300781 784.5 C 2956.308594 805.5 2943.320312 834.511719 2943.320312 866.550781" fill-opacity="1" fill="rgb(5.447388%, 5.892944%, 5.529785%)" fill-rule="nonzero"/>
<path d="M 2985.71875 593.140625 C 2980.589844 594.511719 2975.320312 591.46875 2973.949219 586.339844 C 2972.578125 581.210938 2975.621094 575.941406 2980.75 574.570312 C 3061.371094 552.96875 3143.121094 566.089844 3210.128906 604.78125 C 3277.121094 643.460938 3329.359375 707.699219 3350.960938 788.320312 C 3372.558594 868.929688 3359.429688 950.691406 3320.738281 1017.691406 C 3282.070312 1084.679688 3217.828125 1136.921875 3137.210938 1158.53125 C 3124.429688 1161.949219 3111.511719 1164.511719 3098.519531 1166.238281 C 3085.441406 1167.980469 3072.359375 1168.851562 3059.351562 1168.871094 C 3054.050781 1168.871094 3049.761719 1164.578125 3049.761719 1159.28125 C 3049.761719 1153.988281 3054.050781 1149.691406 3059.351562 1149.691406 C 3071.460938 1149.671875 3083.710938 1148.859375 3096.03125 1147.210938 C 3107.980469 1145.621094 3120.070312 1143.210938 3132.238281 1139.949219 C 3207.75 1119.71875 3267.898438 1070.800781 3304.121094 1008.058594 C 3340.339844 945.339844 3352.621094 868.789062 3332.378906 793.28125 C 3312.148438 717.78125 3263.230469 657.621094 3200.5 621.398438 C 3137.78125 585.191406 3061.230469 572.910156 2985.71875 593.140625" fill-opacity="1" fill="rgb(5.447388%, 5.892944%, 5.529785%)" fill-rule="nonzero"/>
<path d="M 4484.859375 874.410156 L 4145.210938 874.898438 C 4141.121094 874.910156 4137.789062 878.25 4137.789062 882.339844 L 4138.011719 1029.929688 C 4138.011719 1032 4138.769531 1033.78125 4140.25 1035.230469 C 4141.730469 1036.671875 4143.519531 1037.390625 4145.589844 1037.339844 C 4240.820312 1035.371094 4326.53125 1016.101562 4389.339844 985.929688 C 4446.011719 958.71875 4483.71875 922.878906 4492.140625 883.378906 C 4492.621094 881.109375 4492.101562 878.960938 4490.640625 877.160156 C 4489.179688 875.351562 4487.179688 874.398438 4484.859375 874.410156 Z M 4129.390625 486.261719 C 4234.398438 486.261719 4329.46875 528.828125 4398.289062 597.640625 C 4467.109375 666.460938 4509.679688 761.539062 4509.679688 866.550781 C 4509.679688 971.558594 4467.109375 1066.628906 4398.289062 1135.449219 C 4329.46875 1204.269531 4234.398438 1246.828125 4129.390625 1246.828125 C 4024.378906 1246.828125 3929.300781 1204.269531 3860.488281 1135.449219 C 3791.671875 1066.628906 3749.101562 971.550781 3749.101562 866.550781 C 3749.101562 761.539062 3791.671875 666.460938 3860.488281 597.640625 C 3929.308594 528.820312 4024.378906 486.261719 4129.390625 486.261719 Z M 4387.160156 608.78125 C 4375.160156 596.769531 4362.320312 585.601562 4348.75 575.359375 C 4346.269531 573.5 4343.078125 573.328125 4340.429688 574.941406 C 4337.78125 576.539062 4336.441406 579.441406 4336.941406 582.5 C 4337.429688 585.441406 4337.679688 588.441406 4337.679688 591.460938 C 4337.679688 621.308594 4313.53125 647.839844 4274.480469 666.589844 C 4267.671875 669.859375 4260.390625 672.910156 4252.691406 675.691406 C 4249.480469 676.859375 4247.519531 679.941406 4247.828125 683.351562 C 4248.140625 686.75 4250.621094 689.429688 4253.988281 690 C 4307.96875 699.101562 4356.398438 713.949219 4396.109375 733.011719 C 4426.121094 747.421875 4451.230469 764.300781 4470.140625 783.019531 C 4472.550781 785.398438 4476.121094 785.871094 4479.058594 784.179688 C 4482 782.5 4483.398438 779.179688 4482.558594 775.898438 C 4466.121094 711.648438 4432.621094 654.238281 4387.160156 608.78125 Z M 3910.019531 575.371094 C 3896.449219 585.609375 3883.621094 596.78125 3871.621094 608.78125 C 3826.160156 654.238281 3792.660156 711.648438 3776.21875 775.898438 C 3775.378906 779.179688 3776.78125 782.5 3779.71875 784.179688 C 3782.660156 785.871094 3786.230469 785.398438 3788.640625 783.019531 C 3807.550781 764.300781 3832.660156 747.421875 3862.671875 733.011719 C 3902.378906 713.949219 3950.808594 699.101562 4004.78125 690 C 4008.160156 689.429688 4010.640625 686.75 4010.941406 683.351562 C 4011.25 679.941406 4009.289062 676.859375 4006.078125 675.691406 C 3998.378906 672.898438 3991.101562 669.859375 3984.289062 666.589844 C 3945.238281 647.839844 3921.089844 621.308594 3921.089844 591.460938 C 3921.089844 588.441406 3921.339844 585.449219 3921.828125 582.511719 C 3922.328125 579.449219 3920.988281 576.550781 3918.339844 574.941406 C 3915.691406 573.339844 3912.5 573.5 3910.019531 575.371094 Z M 3776.21875 957.199219 C 3792.660156 1021.441406 3826.160156 1078.859375 3871.621094 1124.320312 C 3883.621094 1136.320312 3896.449219 1147.488281 3910.03125 1157.71875 C 3912.5 1159.589844 3915.691406 1159.75 3918.339844 1158.148438 C 3920.988281 1156.550781 3922.328125 1153.648438 3921.828125 1150.589844 C 3921.339844 1147.640625 3921.089844 1144.648438 3921.089844 1141.628906 C 3921.089844 1111.78125 3945.25 1085.25 3984.289062 1066.5 C 3991.101562 1063.230469 3998.378906 1060.191406 4006.070312 1057.398438 C 4009.28125 1056.230469 4011.238281 1053.148438 4010.929688 1049.738281 C 4010.621094 1046.339844 4008.140625 1043.660156 4004.769531 1043.089844 C 3950.800781 1033.988281 3902.371094 1019.140625 3862.671875 1000.078125 C 3832.660156 985.671875 3807.550781 968.789062 3788.640625 950.070312 C 3786.230469 947.691406 3782.660156 947.230469 3779.71875 948.910156 C 3776.78125 950.601562 3775.378906 953.910156 3776.21875 957.199219 Z M 4348.738281 1157.730469 C 4362.320312 1147.488281 4375.160156 1136.320312 4387.160156 1124.320312 C 4432.621094 1078.859375 4466.121094 1021.441406 4482.558594 957.199219 C 4483.398438 953.910156 4482 950.601562 4479.058594 948.910156 C 4476.121094 947.230469 4472.550781 947.691406 4470.140625 950.070312 C 4451.230469 968.789062 4426.121094 985.671875 4396.109375 1000.078125 C 4356.398438 1019.140625 4307.980469 1033.988281 4254 1043.089844 C 4250.628906 1043.660156 4248.148438 1046.339844 4247.839844 1049.738281 C 4247.53125 1053.148438 4249.488281 1056.230469 4252.710938 1057.398438 C 4260.390625 1060.191406 4267.679688 1063.230469 4274.480469 1066.5 C 4313.519531 1085.25 4337.679688 1111.78125 4337.679688 1141.628906 C 4337.679688 1144.648438 4337.429688 1147.640625 4336.941406 1150.601562 C 4336.441406 1153.648438 4337.78125 1156.550781 4340.429688 1158.160156 C 4343.078125 1159.761719 4346.269531 1159.601562 4348.738281 1157.730469 Z M 4122.328125 1029.929688 L 4122.109375 882.359375 C 4122.101562 878.269531 4118.761719 874.941406 4114.671875 874.941406 L 3774.121094 875.441406 C 3771.789062 875.441406 3769.78125 876.410156 3768.320312 878.238281 C 3766.871094 880.058594 3766.371094 882.238281 3766.890625 884.519531 C 3775.789062 923.570312 3813.308594 958.980469 3869.441406 985.929688 C 3932.601562 1016.261719 4018.898438 1035.578125 4114.761719 1037.371094 C 4116.828125 1037.410156 4118.628906 1036.691406 4120.101562 1035.238281 C 4121.578125 1033.789062 4122.328125 1032.011719 4122.328125 1029.929688 Z M 3773.699219 859.75 L 4114.648438 859.261719 C 4118.738281 859.25 4122.070312 855.910156 4122.070312 851.820312 L 4121.851562 703.148438 C 4121.851562 701.078125 4121.101562 699.300781 4119.621094 697.851562 C 4118.140625 696.398438 4116.351562 695.691406 4114.28125 695.730469 C 4018.609375 697.578125 3932.5 716.878906 3869.441406 747.160156 C 3812.210938 774.640625 3774.320312 810.921875 3766.398438 850.878906 C 3765.949219 853.140625 3766.488281 855.261719 3767.949219 857.039062 C 3769.410156 858.820312 3771.398438 859.761719 3773.699219 859.75 Z M 4137.53125 703.179688 L 4137.75 851.800781 C 4137.761719 855.890625 4141.101562 859.21875 4145.191406 859.210938 L 4484.890625 858.71875 C 4487.210938 858.71875 4489.199219 857.761719 4490.648438 855.960938 C 4492.109375 854.160156 4492.621094 852.011719 4492.140625 849.75 C 4483.730469 810.230469 4446.019531 774.378906 4389.339844 747.160156 C 4326.421875 716.941406 4240.53125 697.660156 4145.109375 695.738281 C 4143.039062 695.699219 4141.238281 696.410156 4139.761719 697.871094 C 4138.28125 699.320312 4137.53125 701.109375 4137.53125 703.179688 Z M 4138.058594 1061.019531 L 4138.289062 1222.25 C 4138.289062 1224.351562 4139.058594 1226.148438 4140.578125 1227.601562 C 4142.089844 1229.050781 4143.921875 1229.75 4146.011719 1229.660156 C 4193.550781 1227.761719 4236.121094 1217.78125 4267.71875 1202.609375 C 4301.210938 1186.519531 4321.929688 1164.929688 4321.929688 1141.628906 C 4321.929688 1118.328125 4301.210938 1096.730469 4267.71875 1080.648438 C 4236.070312 1065.449219 4193.398438 1055.460938 4145.78125 1053.589844 C 4143.679688 1053.5 4141.839844 1054.199219 4140.328125 1055.660156 C 4138.820312 1057.109375 4138.050781 1058.921875 4138.058594 1061.019531 Z M 4122.601562 1222.308594 L 4122.371094 1060.929688 C 4122.371094 1058.839844 4121.601562 1057.050781 4120.089844 1055.601562 C 4118.589844 1054.148438 4116.769531 1053.449219 4114.679688 1053.519531 C 4066.371094 1055.230469 4023.070312 1065.269531 3991.050781 1080.648438 C 3957.558594 1096.730469 3936.839844 1118.328125 3936.839844 1141.628906 C 3936.839844 1164.929688 3957.558594 1186.519531 3991.050781 1202.609375 C 4023.121094 1218.011719 4066.511719 1228.070312 4114.921875 1229.75 C 4117.011719 1229.820312 4118.839844 1229.121094 4120.339844 1227.660156 C 4121.839844 1226.210938 4122.609375 1224.398438 4122.601562 1222.308594 Z M 4121.800781 672.121094 L 4121.570312 510.789062 C 4121.570312 508.699219 4120.800781 506.898438 4119.289062 505.449219 C 4117.78125 504 4115.960938 503.300781 4113.871094 503.378906 C 4065.890625 505.171875 4022.890625 515.191406 3991.050781 530.480469 C 3957.558594 546.558594 3936.839844 568.160156 3936.839844 591.460938 C 3936.839844 614.75 3957.558594 636.359375 3991.050781 652.441406 C 4022.941406 667.75 4066.03125 677.78125 4114.101562 679.550781 C 4116.199219 679.628906 4118.03125 678.921875 4119.53125 677.46875 C 4121.039062 676.011719 4121.808594 674.210938 4121.800781 672.121094 Z M 4137.261719 510.808594 L 4137.488281 672.121094 C 4137.488281 674.210938 4138.261719 676.011719 4139.769531 677.460938 C 4141.28125 678.910156 4143.109375 679.609375 4145.199219 679.53125 C 4193.058594 677.710938 4235.941406 667.699219 4267.71875 652.441406 C 4301.210938 636.359375 4321.929688 614.75 4321.929688 591.460938 C 4321.929688 568.160156 4301.210938 546.558594 4267.71875 530.480469 C 4235.890625 515.191406 4192.921875 505.179688 4144.960938 503.378906 C 4142.871094 503.300781 4141.039062 504 4139.53125 505.460938 C 4138.019531 506.910156 4137.25 508.71875 4137.261719 510.808594" fill-opacity="1" fill="rgb(5.447388%, 5.892944%, 5.529785%)" fill-rule="nonzero"/>
<path d="M 757.546875 348.871094 L 2265.929688 348.871094 C 2274.859375 348.871094 2282.101562 356.121094 2282.101562 365.050781 L 2282.101562 1325.75 C 2282.101562 1330.210938 2280.289062 1334.261719 2277.371094 1337.179688 L 2026.308594 1588.230469 C 2023.148438 1591.390625 2019.011719 1592.96875 2014.878906 1592.96875 L 506.492188 1592.96875 C 497.5625 1592.96875 490.320312 1585.730469 490.320312 1576.800781 L 490.320312 616.101562 C 490.320312 611.640625 492.132812 607.589844 495.058594 604.671875 L 746.113281 353.609375 C 749.269531 350.460938 753.40625 348.878906 757.546875 348.878906 Z M 783.777344 428.371094 L 889 428.371094 L 936.15625 381.21875 L 2249.761719 381.21875 L 2249.761719 899.371094 L 2202.601562 946.53125 L 2202.601562 1299.519531 L 1988.648438 1513.46875 L 1883.421875 1513.46875 L 1836.269531 1560.628906 L 522.664062 1560.628906 L 522.664062 1042.46875 L 569.820312 995.320312 L 569.820312 642.328125 L 783.777344 428.371094" fill-opacity="1" fill="rgb(5.447388%, 5.892944%, 5.529785%)" fill-rule="evenodd"/>
<path d="M 1494.738281 3011.46875 L 2184.800781 3011.46875 L 2184.800781 2119.28125 L 1956.699219 1891.179688 L 537.046875 1891.179688 L 537.046875 2769.160156 L 1242.761719 2769.160156 C 1249.210938 2769.160156 1255.050781 2771.78125 1259.269531 2776.011719 Z M 820.65625 3007.640625 L 707.472656 3007.640625 L 566.148438 2864.929688 L 679.332031 2864.929688 Z M 997.753906 3007.640625 L 884.570312 3007.640625 L 743.242188 2864.929688 L 856.429688 2864.929688 Z M 1174.871094 3007.640625 L 1061.679688 3007.640625 L 920.363281 2864.929688 L 1033.550781 2864.929688 Z M 1351.988281 3007.640625 L 1238.800781 3007.640625 L 1097.480469 2864.929688 L 1210.660156 2864.929688 Z M 2161.25 1979.128906 L 1985.128906 1803.011719 L 1783.46875 1803.011719 L 1742.421875 1844.460938 L 513.683594 1844.460938 C 500.78125 1844.460938 490.320312 1854.921875 490.320312 1867.820312 L 490.320312 2792.519531 C 490.320312 2805.429688 500.78125 2815.890625 513.683594 2815.890625 L 1233.078125 2815.890625 L 1465.351562 3048.148438 C 1469.570312 3054.21875 1476.589844 3058.191406 1484.539062 3058.191406 L 2208.160156 3058.191406 C 2221.058594 3058.191406 2231.519531 3047.730469 2231.519531 3034.828125 L 2231.519531 2361.128906 L 2282.960938 2310.191406 L 2282.960938 2100.839844 L 2161.25 1979.128906" fill-opacity="1" fill="rgb(5.447388%, 5.892944%, 5.529785%)" fill-rule="evenodd"/>
<path d="M 4187.441406 1461.511719 C 4239.941406 1461.511719 4287.480469 1482.789062 4321.890625 1517.199219 C 4356.289062 1551.609375 4377.578125 1599.148438 4377.578125 1651.648438 C 4377.578125 1704.148438 4356.300781 1751.691406 4321.890625 1786.101562 C 4287.480469 1820.511719 4239.941406 1841.789062 4187.441406 1841.789062 C 4134.929688 1841.789062 4087.390625 1820.511719 4052.988281 1786.101562 C 4018.578125 1751.691406 3997.289062 1704.148438 3997.289062 1651.648438 C 3997.289062 1599.148438 4018.578125 1551.609375 4052.988281 1517.199219 C 4087.390625 1482.789062 4134.929688 1461.511719 4187.441406 1461.511719 Z M 4214.300781 1606.929688 L 4238.660156 1566.359375 L 4265.199219 1522.160156 C 4275.789062 1528.539062 4285.539062 1536.171875 4294.230469 1544.859375 C 4320.980469 1571.621094 4337.738281 1608.371094 4338.429688 1649.039062 L 4286.910156 1649.929688 L 4239.589844 1650.75 L 4239.601562 1651.648438 C 4239.601562 1671.28125 4228.761719 1688.371094 4212.738281 1697.269531 L 4235.691406 1738.660156 L 4260.691406 1783.738281 C 4239 1795.800781 4214.019531 1802.671875 4187.441406 1802.671875 C 4160.851562 1802.671875 4135.871094 1795.800781 4114.179688 1783.738281 L 4139.179688 1738.660156 L 4162.128906 1697.269531 C 4146.109375 1688.371094 4135.269531 1671.28125 4135.269531 1651.648438 L 4135.28125 1650.75 L 4087.960938 1649.929688 L 4036.441406 1649.039062 C 4037.128906 1608.371094 4053.890625 1571.621094 4080.648438 1544.859375 C 4089.328125 1536.171875 4099.078125 1528.539062 4109.671875 1522.160156 L 4136.210938 1566.359375 L 4160.570312 1606.921875 C 4168.421875 1602.199219 4177.609375 1599.480469 4187.441406 1599.480469 C 4197.261719 1599.480469 4206.449219 1602.199219 4214.300781 1606.929688 Z M 4187.441406 1608.179688 C 4211.441406 1608.179688 4230.910156 1627.640625 4230.910156 1651.648438 C 4230.910156 1675.660156 4211.441406 1695.121094 4187.441406 1695.121094 C 4163.429688 1695.121094 4143.96875 1675.660156 4143.96875 1651.648438 C 4143.96875 1627.640625 4163.429688 1608.179688 4187.441406 1608.179688" fill-opacity="1" fill="rgb(5.447388%, 5.892944%, 5.529785%)" fill-rule="evenodd"/>
<path d="M 500.921875 3408.519531 L 2274.851562 3408.519531 C 2279.328125 3408.519531 2282.960938 3412.148438 2282.960938 3416.628906 L 2282.960938 3506.828125 C 2282.960938 3511.308594 2279.328125 3514.945312 2274.851562 3514.945312 L 500.921875 3514.945312 C 496.4375 3514.945312 492.800781 3511.308594 492.800781 3506.828125 L 492.800781 3416.628906 C 492.800781 3412.148438 496.4375 3408.519531 500.921875 3408.519531 Z M 2266.730469 3424.75 L 509.035156 3424.75 L 509.035156 3498.710938 L 2266.730469 3498.710938 L 2266.730469 3424.75" fill-opacity="1" fill="rgb(5.447388%, 5.892944%, 5.529785%)" fill-rule="nonzero"/>
<path d="M 500.921875 3416.628906 L 964.804688 3416.628906 L 964.804688 3506.828125 L 500.921875 3506.828125 L 500.921875 3416.628906" fill-opacity="1" fill="rgb(5.447388%, 5.892944%, 5.529785%)" fill-rule="evenodd"/>
<path d="M 500.921875 3623.28125 L 2274.851562 3623.28125 C 2279.328125 3623.28125 2282.960938 3626.917969 2282.960938 3631.398438 L 2282.960938 3721.59375 C 2282.960938 3726.074219 2279.328125 3729.710938 2274.851562 3729.710938 L 500.921875 3729.710938 C 496.4375 3729.710938 492.800781 3726.074219 492.800781 3721.59375 L 492.800781 3631.398438 C 492.800781 3626.917969 496.4375 3623.28125 500.921875 3623.28125 Z M 2266.730469 3639.515625 L 509.035156 3639.515625 L 509.035156 3713.476562 L 2266.730469 3713.476562 L 2266.730469 3639.515625" fill-opacity="1" fill="rgb(5.447388%, 5.892944%, 5.529785%)" fill-rule="nonzero"/>
<path d="M 500.921875 3838.050781 L 2274.851562 3838.050781 C 2279.328125 3838.050781 2282.960938 3841.683594 2282.960938 3846.164062 L 2282.960938 3936.359375 C 2282.960938 3940.84375 2279.328125 3944.476562 2274.851562 3944.476562 L 500.921875 3944.476562 C 496.4375 3944.476562 492.800781 3940.84375 492.800781 3936.359375 L 492.800781 3846.164062 C 492.800781 3841.683594 496.4375 3838.050781 500.921875 3838.050781 Z M 2266.730469 3854.28125 L 509.035156 3854.28125 L 509.035156 3928.242188 L 2266.730469 3928.242188 L 2266.730469 3854.28125" fill-opacity="1" fill="rgb(5.447388%, 5.892944%, 5.529785%)" fill-rule="nonzero"/>
<path d="M 500.921875 4060.933594 L 2274.851562 4060.933594 L 2274.851562 4151.128906 L 500.921875 4151.128906 L 500.921875 4060.933594" fill-opacity="1" fill="rgb(5.447388%, 5.892944%, 5.529785%)" fill-rule="evenodd"/>
<path d="M 500.921875 3631.398438 L 1387.878906 3631.398438 L 1387.878906 3721.59375 L 500.921875 3721.59375 L 500.921875 3631.398438" fill-opacity="1" fill="rgb(5.447388%, 5.892944%, 5.529785%)" fill-rule="evenodd"/>
<path d="M 500.921875 3846.164062 L 1832.441406 3846.164062 L 1832.441406 3936.359375 L 500.921875 3936.359375 L 500.921875 3846.164062" fill-opacity="1" fill="rgb(5.447388%, 5.892944%, 5.529785%)" fill-rule="evenodd"/>
<path d="M 500.921875 3362.210938 L 605.066406 3362.210938 L 605.066406 3393.738281 L 500.921875 3393.738281 L 500.921875 3362.210938" fill-opacity="1" fill="rgb(5.447388%, 5.892944%, 5.529785%)" fill-rule="evenodd"/>
<path d="M 624.9375 3362.210938 L 659.296875 3362.210938 L 659.296875 3393.738281 L 624.9375 3393.738281 L 624.9375 3362.210938" fill-opacity="1" fill="rgb(5.447388%, 5.892944%, 5.529785%)" fill-rule="evenodd"/>
<path d="M 677.285156 3362.210938 L 704.257812 3362.210938 L 704.257812 3393.738281 L 677.285156 3393.738281 L 677.285156 3362.210938" fill-opacity="1" fill="rgb(5.447388%, 5.892944%, 5.529785%)" fill-rule="evenodd"/>
<path d="M 716.546875 3362.210938 L 737.015625 3362.210938 L 737.015625 3393.738281 L 716.546875 3393.738281 L 716.546875 3362.210938" fill-opacity="1" fill="rgb(5.447388%, 5.892944%, 5.529785%)" fill-rule="evenodd"/>
<path d="M 500.921875 3575.84375 L 605.066406 3575.84375 L 605.066406 3607.363281 L 500.921875 3607.363281 L 500.921875 3575.84375" fill-opacity="1" fill="rgb(5.447388%, 5.892944%, 5.529785%)" fill-rule="evenodd"/>
<path d="M 500.921875 3789.472656 L 605.066406 3789.472656 L 605.066406 3820.996094 L 500.921875 3820.996094 L 500.921875 3789.472656" fill-opacity="1" fill="rgb(5.447388%, 5.892944%, 5.529785%)" fill-rule="evenodd"/>
<path d="M 500.921875 4003.101562 L 605.066406 4003.101562 L 605.066406 4034.625 L 500.921875 4034.625 L 500.921875 4003.101562" fill-opacity="1" fill="rgb(5.447388%, 5.892944%, 5.529785%)" fill-rule="evenodd"/>
<path d="M 624.9375 3575.84375 L 659.296875 3575.84375 L 659.296875 3607.363281 L 624.9375 3607.363281 L 624.9375 3575.84375" fill-opacity="1" fill="rgb(5.447388%, 5.892944%, 5.529785%)" fill-rule="evenodd"/>
<path d="M 624.9375 3789.472656 L 659.296875 3789.472656 L 659.296875 3820.996094 L 624.9375 3820.996094 L 624.9375 3789.472656" fill-opacity="1" fill="rgb(5.447388%, 5.892944%, 5.529785%)" fill-rule="evenodd"/>
<path d="M 624.9375 4003.101562 L 659.296875 4003.101562 L 659.296875 4034.625 L 624.9375 4034.625 L 624.9375 4003.101562" fill-opacity="1" fill="rgb(5.447388%, 5.892944%, 5.529785%)" fill-rule="evenodd"/>
<path d="M 677.285156 3575.84375 L 704.257812 3575.84375 L 704.257812 3607.363281 L 677.285156 3607.363281 L 677.285156 3575.84375" fill-opacity="1" fill="rgb(5.447388%, 5.892944%, 5.529785%)" fill-rule="evenodd"/>
<path d="M 677.285156 3789.472656 L 704.257812 3789.472656 L 704.257812 3820.996094 L 677.285156 3820.996094 L 677.285156 3789.472656" fill-opacity="1" fill="rgb(5.447388%, 5.892944%, 5.529785%)" fill-rule="evenodd"/>
<path d="M 677.285156 4003.101562 L 704.257812 4003.101562 L 704.257812 4034.625 L 677.285156 4034.625 L 677.285156 4003.101562" fill-opacity="1" fill="rgb(5.447388%, 5.892944%, 5.529785%)" fill-rule="evenodd"/>
<path d="M 716.546875 3575.84375 L 737.015625 3575.84375 L 737.015625 3607.363281 L 716.546875 3607.363281 L 716.546875 3575.84375" fill-opacity="1" fill="rgb(5.447388%, 5.892944%, 5.529785%)" fill-rule="evenodd"/>
<path d="M 716.546875 3789.472656 L 737.015625 3789.472656 L 737.015625 3820.996094 L 716.546875 3820.996094 L 716.546875 3789.472656" fill-opacity="1" fill="rgb(5.447388%, 5.892944%, 5.529785%)" fill-rule="evenodd"/>
<path d="M 716.546875 4003.101562 L 737.015625 4003.101562 L 737.015625 4034.625 L 716.546875 4034.625 L 716.546875 4003.101562" fill-opacity="1" fill="rgb(5.447388%, 5.892944%, 5.529785%)" fill-rule="evenodd"/>
<path d="M 3154.601562 2221.640625 L 3154.601562 2221.191406 C 3154.789062 2190.578125 3194.421875 2163.390625 3258.378906 2144.148438 C 3320.960938 2125.328125 3407.339844 2113.679688 3502.679688 2113.679688 C 3598.011719 2113.679688 3684.390625 2125.328125 3746.980469 2144.148438 C 3810.941406 2163.390625 3850.558594 2190.578125 3850.75 2221.191406 L 3850.761719 2221.300781 L 3850.761719 2221.519531 L 3850.75 2221.640625 C 3850.558594 2252.25 3810.941406 2279.441406 3746.980469 2298.679688 C 3684.390625 2317.5 3598.011719 2329.148438 3502.679688 2329.148438 C 3407.339844 2329.148438 3320.960938 2317.5 3258.378906 2298.679688 C 3194.421875 2279.441406 3154.789062 2252.25 3154.601562 2221.640625 Z M 3163.621094 2217.070312 L 3238.050781 2217.070312 C 3240.769531 2188.328125 3270.378906 2162.75 3316.890625 2144.289062 C 3327.121094 2140.230469 3338.179688 2136.5 3349.96875 2133.148438 C 3316.828125 2138.121094 3286.761719 2144.671875 3260.851562 2152.460938 C 3203.890625 2169.601562 3167.460938 2192.339844 3163.621094 2217.070312 Z M 3655.390625 2133.148438 C 3667.171875 2136.5 3678.238281 2140.230469 3688.46875 2144.289062 C 3734.96875 2162.75 3764.578125 2188.328125 3767.300781 2217.070312 L 3841.730469 2217.070312 C 3837.890625 2192.339844 3801.460938 2169.601562 3744.5 2152.460938 C 3718.589844 2144.671875 3688.53125 2138.121094 3655.390625 2133.148438 Z M 3841.730469 2225.761719 L 3767.300781 2225.761719 C 3764.578125 2254.5 3734.96875 2280.078125 3688.46875 2298.539062 C 3678.238281 2302.601562 3667.171875 2306.328125 3655.390625 2309.679688 C 3688.53125 2304.699219 3718.589844 2298.160156 3744.5 2290.371094 C 3801.460938 2273.230469 3837.890625 2250.480469 3841.730469 2225.761719 Z M 3349.96875 2309.679688 C 3338.179688 2306.328125 3327.121094 2302.601562 3316.890625 2298.539062 C 3270.378906 2280.078125 3240.769531 2254.5 3238.050781 2225.761719 L 3163.621094 2225.761719 C 3167.460938 2250.480469 3203.890625 2273.230469 3260.851562 2290.371094 C 3286.761719 2298.160156 3316.828125 2304.699219 3349.96875 2309.679688 Z M 3246.78125 2217.070312 L 3321.238281 2217.070312 C 3323.109375 2188.609375 3343.371094 2163.109375 3375.179688 2144.558594 C 3384.96875 2138.839844 3395.878906 2133.78125 3407.699219 2129.488281 C 3374.550781 2134.691406 3344.800781 2142.511719 3320.070312 2152.320312 C 3277.121094 2169.371094 3249.660156 2192.160156 3246.78125 2217.070312 Z M 3597.660156 2129.488281 C 3609.46875 2133.78125 3620.378906 2138.839844 3630.179688 2144.558594 C 3661.980469 2163.109375 3682.238281 2188.609375 3684.121094 2217.070312 L 3758.570312 2217.070312 C 3755.691406 2192.160156 3728.230469 2169.371094 3685.28125 2152.320312 C 3660.558594 2142.511719 3630.800781 2134.691406 3597.660156 2129.488281 Z M 3758.570312 2225.761719 L 3684.121094 2225.761719 C 3682.238281 2254.21875 3661.980469 2279.71875 3630.179688 2298.269531 C 3620.378906 2303.988281 3609.46875 2309.039062 3597.660156 2313.328125 C 3630.800781 2308.140625 3660.558594 2300.308594 3685.28125 2290.5 C 3728.230469 2273.460938 3755.691406 2250.671875 3758.570312 2225.761719 Z M 3407.699219 2313.328125 C 3395.878906 2309.039062 3384.96875 2303.988281 3375.179688 2298.269531 C 3343.371094 2279.71875 3323.109375 2254.21875 3321.238281 2225.761719 L 3246.78125 2225.761719 C 3249.660156 2250.671875 3277.121094 2273.460938 3320.070312 2290.5 C 3344.800781 2300.308594 3374.550781 2308.140625 3407.699219 2313.328125 Z M 3329.941406 2217.070312 L 3404.421875 2217.070312 C 3405.429688 2189.128906 3416.171875 2163.910156 3433.011719 2145.390625 C 3440.101562 2137.589844 3448.269531 2130.980469 3457.25 2125.839844 C 3427.371094 2130.519531 3400.699219 2139.699219 3379.519531 2152.050781 C 3350.449219 2169.011719 3331.871094 2191.878906 3329.941406 2217.070312 Z M 3548.101562 2125.839844 C 3557.089844 2130.980469 3565.261719 2137.589844 3572.351562 2145.390625 C 3589.191406 2163.910156 3599.921875 2189.128906 3600.941406 2217.070312 L 3675.410156 2217.070312 C 3673.480469 2191.878906 3654.898438 2169.011719 3625.839844 2152.050781 C 3604.648438 2139.699219 3577.980469 2130.519531 3548.101562 2125.839844 Z M 3675.410156 2225.761719 L 3600.941406 2225.761719 C 3599.921875 2253.691406 3589.191406 2278.910156 3572.351562 2297.441406 C 3565.261719 2305.238281 3557.089844 2311.851562 3548.101562 2316.988281 C 3577.980469 2312.308594 3604.648438 2303.128906 3625.839844 2290.769531 C 3654.898438 2273.820312 3673.480469 2250.941406 3675.410156 2225.761719 Z M 3457.25 2316.988281 C 3448.269531 2311.851562 3440.101562 2305.238281 3433.011719 2297.441406 C 3416.171875 2278.910156 3405.429688 2253.691406 3404.421875 2225.761719 L 3329.941406 2225.761719 C 3331.871094 2250.941406 3350.449219 2273.820312 3379.519531 2290.769531 C 3400.699219 2303.128906 3427.371094 2312.308594 3457.25 2316.988281 Z M 3413.109375 2217.070312 L 3592.238281 2217.070312 C 3591.238281 2191.359375 3581.378906 2168.210938 3565.941406 2151.21875 C 3549.730469 2133.390625 3527.359375 2122.371094 3502.679688 2122.371094 C 3478 2122.371094 3455.628906 2133.390625 3439.421875 2151.21875 C 3423.980469 2168.210938 3414.109375 2191.359375 3413.109375 2217.070312 Z M 3592.238281 2225.761719 L 3413.109375 2225.761719 C 3414.109375 2251.46875 3423.980469 2274.621094 3439.421875 2291.601562 C 3455.628906 2309.429688 3478 2320.460938 3502.679688 2320.460938 C 3527.359375 2320.460938 3549.730469 2309.429688 3565.941406 2291.601562 C 3581.378906 2274.621094 3591.238281 2251.46875 3592.238281 2225.761719" fill-opacity="1" fill="rgb(5.447388%, 5.892944%, 5.529785%)" fill-rule="nonzero"/>
<path d="M 2791.128906 3253.039062 L 4242.011719 3253.039062 C 4267.511719 3253.039062 4290.691406 3263.46875 4307.488281 3280.261719 C 4324.289062 3297.058594 4334.710938 3320.238281 4334.710938 3345.738281 L 4334.710938 3345.75 C 4334.710938 3371.25 4324.289062 3394.429688 4307.488281 3411.230469 C 4290.691406 3428.019531 4267.511719 3438.449219 4242.011719 3438.449219 L 2791.128906 3438.449219 C 2765.621094 3438.449219 2742.441406 3428.019531 2725.648438 3411.230469 C 2708.859375 3394.429688 2698.429688 3371.25 2698.429688 3345.75 L 2698.429688 3345.738281 C 2698.429688 3320.238281 2708.859375 3297.058594 2725.648438 3280.261719 C 2742.441406 3263.46875 2765.621094 3253.039062 2791.128906 3253.039062 Z M 3600.089844 3345.738281 C 3600.089844 3308.351562 3629.269531 3277.441406 3665.988281 3274.660156 L 4242.011719 3274.660156 C 4261.550781 3274.660156 4279.320312 3282.660156 4292.210938 3295.539062 C 4305.089844 3308.429688 4313.089844 3326.199219 4313.089844 3345.738281 L 4313.089844 3345.75 C 4313.089844 3365.28125 4305.089844 3383.058594 4292.210938 3395.941406 C 4279.320312 3408.828125 4261.550781 3416.828125 4242.011719 3416.828125 L 3665.988281 3416.828125 C 3629.269531 3414.050781 3600.089844 3383.140625 3600.089844 3345.738281" fill-opacity="1" fill="rgb(5.447388%, 5.892944%, 5.529785%)" fill-rule="evenodd"/>
<path d="M 4242.011719 3609.378906 L 2791.140625 3609.378906 C 2765.628906 3609.378906 2742.449219 3619.804688 2725.648438 3636.601562 C 2708.859375 3653.394531 2698.429688 3676.574219 2698.429688 3702.078125 L 2698.429688 3702.085938 C 2698.429688 3727.589844 2708.859375 3750.769531 2725.648438 3767.566406 C 2742.449219 3784.359375 2765.628906 3794.789062 2791.140625 3794.789062 L 4242.011719 3794.789062 C 4267.519531 3794.789062 4290.699219 3784.359375 4307.488281 3767.566406 C 4324.289062 3750.769531 4334.71875 3727.589844 4334.71875 3702.085938 L 4334.71875 3702.078125 C 4334.71875 3676.574219 4324.289062 3653.394531 4307.488281 3636.601562 C 4290.699219 3619.804688 4267.519531 3609.378906 4242.011719 3609.378906 Z M 3963.21875 3702.078125 C 3963.21875 3664.683594 3934.039062 3633.777344 3897.320312 3630.992188 L 2791.140625 3630.992188 C 2771.601562 3630.992188 2753.820312 3638.996094 2740.941406 3651.882812 C 2728.050781 3664.769531 2720.050781 3682.542969 2720.050781 3702.078125 L 2720.050781 3702.085938 C 2720.050781 3721.621094 2728.050781 3739.394531 2740.941406 3752.28125 C 2753.820312 3765.167969 2771.601562 3773.171875 2791.140625 3773.171875 L 3897.320312 3773.171875 C 3934.039062 3770.390625 3963.21875 3739.480469 3963.21875 3702.078125" fill-opacity="1" fill="rgb(5.447388%, 5.892944%, 5.529785%)" fill-rule="evenodd"/>
<path d="M 4242.011719 3965.714844 L 2791.128906 3965.714844 C 2765.628906 3965.714844 2742.449219 3976.144531 2725.648438 3992.9375 C 2708.859375 4009.734375 2698.429688 4032.914062 2698.429688 4058.421875 C 2698.429688 4083.929688 2708.859375 4107.109375 2725.648438 4123.902344 C 2742.449219 4140.699219 2765.628906 4151.128906 2791.128906 4151.128906 L 4242.011719 4151.128906 C 4267.519531 4151.128906 4290.699219 4140.699219 4307.488281 4123.902344 C 4324.289062 4107.109375 4334.71875 4083.929688 4334.71875 4058.421875 C 4334.71875 4032.914062 4324.289062 4009.734375 4307.488281 3992.9375 C 4290.699219 3976.144531 4267.519531 3965.714844 4242.011719 3965.714844 Z M 2795.980469 3997.484375 C 2829.640625 3997.484375 2856.921875 4024.765625 2856.921875 4058.421875 C 2856.921875 4092.078125 2829.640625 4119.359375 2795.980469 4119.359375 C 2762.328125 4119.359375 2735.050781 4092.078125 2735.050781 4058.421875 C 2735.050781 4024.765625 2762.328125 3997.484375 2795.980469 3997.484375 Z M 3548.828125 4058.421875 C 3548.828125 4021.023438 3519.660156 3990.113281 3482.941406 3987.332031 L 2791.128906 3987.332031 C 2771.601562 3987.332031 2753.820312 3995.335938 2740.941406 4008.222656 C 2728.050781 4021.109375 2720.050781 4038.882812 2720.050781 4058.421875 C 2720.050781 4077.960938 2728.050781 4095.734375 2740.941406 4108.621094 C 2753.820312 4121.507812 2771.601562 4129.507812 2791.128906 4129.507812 L 3482.941406 4129.507812 C 3519.660156 4126.726562 3548.828125 4095.820312 3548.828125 4058.421875" fill-opacity="1" fill="rgb(5.447388%, 5.892944%, 5.529785%)" fill-rule="evenodd"/>
<path d="M 4187.441406 2061.898438 C 4231.480469 2061.898438 4271.359375 2079.761719 4300.230469 2108.621094 C 4329.089844 2137.488281 4346.949219 2177.371094 4346.949219 2221.410156 C 4346.949219 2265.460938 4329.089844 2305.339844 4300.230469 2334.199219 C 4271.359375 2363.070312 4231.480469 2380.921875 4187.441406 2380.921875 C 4143.390625 2380.921875 4103.511719 2363.070312 4074.648438 2334.199219 C 4045.78125 2305.339844 4027.929688 2265.460938 4027.929688 2221.410156 C 4027.929688 2177.371094 4045.78125 2137.488281 4074.648438 2108.621094 C 4103.511719 2079.761719 4143.390625 2061.898438 4187.441406 2061.898438 Z M 4296.46875 2112.378906 C 4268.570312 2084.46875 4230.019531 2067.210938 4187.441406 2067.210938 C 4144.859375 2067.210938 4106.300781 2084.46875 4078.398438 2112.378906 C 4050.488281 2140.28125 4033.230469 2178.828125 4033.230469 2221.410156 C 4033.230469 2263.988281 4050.488281 2302.550781 4078.398438 2330.449219 C 4106.300781 2358.359375 4144.859375 2375.621094 4187.441406 2375.621094 C 4230.019531 2375.621094 4268.570312 2358.359375 4296.46875 2330.449219 C 4324.378906 2302.550781 4341.640625 2263.988281 4341.640625 2221.410156 C 4341.640625 2178.828125 4324.378906 2140.28125 4296.46875 2112.378906" fill-opacity="1" fill="rgb(5.447388%, 5.892944%, 5.529785%)" fill-rule="nonzero"/>
<path d="M 4346.949219 2221.410156 C 4346.949219 2265.460938 4329.089844 2305.339844 4300.230469 2334.199219 C 4271.359375 2363.070312 4231.480469 2380.921875 4187.441406 2380.921875 C 4143.390625 2380.921875 4103.511719 2363.070312 4074.648438 2334.199219 C 4045.78125 2305.339844 4027.929688 2265.460938 4027.929688 2221.410156 C 4027.929688 2177.371094 4045.78125 2137.488281 4074.648438 2108.621094 C 4103.511719 2079.761719 4143.390625 2061.898438 4187.441406 2061.898438 C 4231.480469 2061.898438 4271.359375 2079.761719 4300.230469 2108.621094 C 4329.089844 2137.488281 4346.949219 2177.371094 4346.949219 2221.410156 Z M 4296.46875 2330.449219 C 4324.378906 2302.550781 4341.640625 2263.988281 4341.640625 2221.410156 C 4341.640625 2178.828125 4324.378906 2140.28125 4296.46875 2112.378906 C 4268.570312 2084.46875 4230.019531 2067.210938 4187.441406 2067.210938 C 4144.859375 2067.210938 4106.300781 2084.46875 4078.398438 2112.378906 C 4050.488281 2140.28125 4033.230469 2178.828125 4033.230469 2221.410156 C 4033.230469 2263.988281 4050.488281 2302.550781 4078.398438 2330.449219 C 4106.300781 2358.359375 4144.859375 2375.621094 4187.441406 2375.621094 C 4230.019531 2375.621094 4268.570312 2358.359375 4296.46875 2330.449219" fill-opacity="1" fill="rgb(5.447388%, 5.892944%, 5.529785%)" fill-rule="nonzero"/>
<path d="M 4187.441406 2061.898438 C 4215.28125 2061.898438 4240.378906 2079.949219 4258.46875 2109.109375 C 4276.320312 2137.898438 4287.371094 2177.609375 4287.371094 2221.410156 C 4287.371094 2265.21875 4276.320312 2304.929688 4258.46875 2333.71875 C 4240.378906 2362.878906 4215.269531 2380.921875 4187.441406 2380.921875 C 4159.601562 2380.921875 4134.488281 2362.878906 4116.398438 2333.71875 C 4098.550781 2304.929688 4087.511719 2265.21875 4087.511719 2221.410156 C 4087.511719 2177.609375 4098.550781 2137.898438 4116.398438 2109.109375 C 4134.488281 2079.949219 4159.601562 2061.898438 4187.441406 2061.898438 Z M 4253.96875 2111.890625 C 4236.851562 2084.289062 4213.320312 2067.210938 4187.441406 2067.210938 C 4161.550781 2067.210938 4138.019531 2084.289062 4120.898438 2111.890625 C 4103.550781 2139.871094 4092.808594 2178.589844 4092.808594 2221.410156 C 4092.808594 2264.238281 4103.550781 2302.960938 4120.898438 2330.941406 C 4138.019531 2358.539062 4161.550781 2375.621094 4187.441406 2375.621094 C 4213.320312 2375.621094 4236.851562 2358.539062 4253.96875 2330.941406 C 4271.320312 2302.960938 4282.058594 2264.238281 4282.058594 2221.410156 C 4282.058594 2178.589844 4271.320312 2139.871094 4253.96875 2111.890625" fill-opacity="1" fill="rgb(5.447388%, 5.892944%, 5.529785%)" fill-rule="nonzero"/>
<path d="M 4346.949219 2221.410156 C 4346.949219 2249.25 4328.898438 2274.359375 4299.738281 2292.449219 C 4270.949219 2310.300781 4231.238281 2321.339844 4187.441406 2321.339844 C 4143.628906 2321.339844 4103.921875 2310.300781 4075.128906 2292.449219 C 4045.96875 2274.359375 4027.929688 2249.25 4027.929688 2221.410156 C 4027.929688 2193.578125 4045.96875 2168.46875 4075.128906 2150.378906 C 4103.921875 2132.53125 4143.628906 2121.480469 4187.441406 2121.480469 C 4231.238281 2121.480469 4270.949219 2132.53125 4299.738281 2150.378906 C 4328.898438 2168.46875 4346.949219 2193.570312 4346.949219 2221.410156 Z M 4296.960938 2287.949219 C 4324.558594 2270.828125 4341.640625 2247.300781 4341.640625 2221.410156 C 4341.640625 2195.53125 4324.558594 2172 4296.960938 2154.878906 C 4268.980469 2137.519531 4230.261719 2126.789062 4187.441406 2126.789062 C 4144.609375 2126.789062 4105.890625 2137.519531 4077.910156 2154.878906 C 4050.308594 2172 4033.230469 2195.53125 4033.230469 2221.410156 C 4033.230469 2247.300781 4050.308594 2270.828125 4077.910156 2287.949219 C 4105.890625 2305.300781 4144.609375 2316.039062 4187.441406 2316.039062 C 4230.261719 2316.039062 4268.980469 2305.300781 4296.960938 2287.949219" fill-opacity="1" fill="rgb(5.447388%, 5.892944%, 5.529785%)" fill-rule="nonzero"/>
<path d="M 4187.441406 2061.898438 C 4199.230469 2061.898438 4209.539062 2080.238281 4216.660156 2109.890625 C 4223.53125 2138.480469 4227.789062 2177.921875 4227.789062 2221.410156 C 4227.789062 2264.910156 4223.53125 2304.339844 4216.660156 2332.941406 C 4209.539062 2362.578125 4199.230469 2380.921875 4187.441406 2380.921875 C 4175.640625 2380.921875 4165.339844 2362.578125 4158.210938 2332.941406 C 4151.339844 2304.339844 4147.089844 2264.898438 4147.089844 2221.410156 C 4147.089844 2177.921875 4151.339844 2138.488281 4158.210938 2109.890625 C 4165.339844 2080.238281 4175.640625 2061.898438 4187.441406 2061.898438 Z M 4211.519531 2111.109375 C 4205 2083.988281 4196.460938 2067.210938 4187.441406 2067.210938 C 4178.410156 2067.210938 4169.871094 2083.988281 4163.351562 2111.109375 C 4156.578125 2139.28125 4152.390625 2178.28125 4152.390625 2221.410156 C 4152.390625 2264.550781 4156.578125 2303.539062 4163.351562 2331.71875 C 4169.871094 2358.839844 4178.410156 2375.621094 4187.441406 2375.621094 C 4196.460938 2375.621094 4205 2358.839844 4211.519531 2331.710938 C 4218.289062 2303.539062 4222.480469 2264.550781 4222.480469 2221.410156 C 4222.480469 2178.28125 4218.289062 2139.28125 4211.519531 2111.109375" fill-opacity="1" fill="rgb(5.447388%, 5.892944%, 5.529785%)" fill-rule="nonzero"/>
<path d="M 4346.949219 2221.410156 C 4346.949219 2233.210938 4328.609375 2243.511719 4298.960938 2250.640625 C 4270.359375 2257.511719 4230.929688 2261.761719 4187.441406 2261.761719 C 4143.949219 2261.761719 4104.511719 2257.511719 4075.910156 2250.640625 C 4046.269531 2243.511719 4027.929688 2233.210938 4027.929688 2221.410156 C 4027.929688 2209.621094 4046.269531 2199.308594 4075.910156 2192.191406 C 4104.511719 2185.320312 4143.941406 2181.070312 4187.441406 2181.070312 C 4230.929688 2181.070312 4270.371094 2185.320312 4298.960938 2192.191406 C 4328.609375 2199.308594 4346.949219 2209.621094 4346.949219 2221.410156 Z M 4297.738281 2245.5 C 4324.859375 2238.980469 4341.640625 2230.441406 4341.640625 2221.410156 C 4341.640625 2212.390625 4324.859375 2203.851562 4297.738281 2197.328125 C 4269.570312 2190.558594 4230.570312 2186.371094 4187.441406 2186.371094 C 4144.300781 2186.371094 4105.308594 2190.558594 4077.140625 2197.328125 C 4050.011719 2203.851562 4033.230469 2212.390625 4033.230469 2221.410156 C 4033.230469 2230.441406 4050.011719 2238.980469 4077.128906 2245.5 C 4105.308594 2252.269531 4144.300781 2256.460938 4187.441406 2256.460938 C 4230.570312 2256.460938 4269.570312 2252.269531 4297.738281 2245.5" fill-opacity="1" fill="rgb(5.447388%, 5.892944%, 5.529785%)" fill-rule="nonzero"/>
<path d="M 2665.261719 2791.179688 C 2665.261719 2734.101562 2713.738281 2684.039062 2786.558594 2655.980469 C 2776.53125 2682 2769.308594 2711.140625 2765.578125 2742.28125 C 2704.578125 2753.550781 2665.261719 2771.261719 2665.261719 2791.179688 C 2665.261719 2811.101562 2704.578125 2828.808594 2765.578125 2840.078125 C 2769.308594 2871.21875 2776.53125 2900.359375 2786.558594 2926.378906 C 2713.738281 2898.320312 2665.261719 2848.261719 2665.261719 2791.179688 Z M 2921.761719 2534.679688 C 2978.839844 2534.679688 3028.898438 2583.160156 3056.96875 2655.980469 C 3030.941406 2645.941406 3001.808594 2638.71875 2970.660156 2635 C 2959.398438 2573.988281 2941.679688 2534.679688 2921.761719 2534.679688 Z M 3056.96875 2655.980469 C 3129.789062 2684.039062 3178.269531 2734.101562 3178.269531 2791.179688 C 3178.269531 2848.261719 3129.789062 2898.320312 3056.96875 2926.390625 C 3067 2900.359375 3074.21875 2871.21875 3077.949219 2840.078125 C 3138.949219 2828.808594 3178.269531 2811.101562 3178.269531 2791.179688 C 3178.269531 2649.519531 3063.429688 2534.679688 2921.761719 2534.679688 C 2780.101562 2534.679688 2665.261719 2649.519531 2665.261719 2791.179688 C 2665.261719 2932.839844 2780.101562 3047.679688 2921.761719 3047.679688 C 3063.429688 3047.679688 3178.269531 2932.839844 3178.269531 2791.179688 C 3178.269531 2771.261719 3138.949219 2753.550781 3077.949219 2742.28125 C 3074.21875 2711.140625 3067 2682 3056.96875 2655.980469 Z M 3080.839844 2791.179688 C 3080.839844 2807.898438 3079.839844 2824.25 3077.949219 2840.078125 C 3049.890625 2845.269531 3017.238281 2849.089844 2981.710938 2851.128906 C 2982.820312 2831.898438 2983.410156 2811.820312 2983.410156 2791.179688 C 2983.410156 2770.539062 2982.820312 2750.460938 2981.710938 2731.230469 C 3017.238281 2733.28125 3049.890625 2737.101562 3077.949219 2742.28125 C 3079.839844 2758.109375 3080.839844 2774.460938 3080.839844 2791.179688 Z M 3056.96875 2926.390625 C 3028.898438 2999.199219 2978.839844 3047.679688 2921.761719 3047.679688 C 2941.679688 3047.679688 2959.398438 3008.371094 2970.660156 2947.371094 C 3001.808594 2943.640625 3030.941406 2936.421875 3056.96875 2926.390625 Z M 2981.710938 2851.128906 C 2979.671875 2886.648438 2975.851562 2919.300781 2970.660156 2947.371094 C 2954.839844 2949.261719 2938.488281 2950.25 2921.761719 2950.25 C 2905.039062 2950.25 2888.691406 2949.261719 2872.859375 2947.371094 C 2867.679688 2919.300781 2863.859375 2886.648438 2861.808594 2851.128906 C 2881.050781 2852.238281 2901.121094 2852.820312 2921.761719 2852.820312 C 2942.410156 2852.820312 2962.480469 2852.238281 2981.710938 2851.128906 Z M 2970.660156 2635 C 2975.851562 2663.058594 2979.671875 2695.710938 2981.710938 2731.230469 C 2962.480469 2730.121094 2942.410156 2729.539062 2921.761719 2729.539062 C 2901.121094 2729.539062 2881.050781 2730.121094 2861.808594 2731.230469 C 2863.859375 2695.710938 2867.679688 2663.058594 2872.859375 2635 C 2888.691406 2633.101562 2905.039062 2632.109375 2921.761719 2632.109375 C 2938.488281 2632.109375 2954.828125 2633.101562 2970.660156 2635 Z M 2872.859375 2947.371094 C 2884.128906 3008.371094 2901.839844 3047.679688 2921.761719 3047.679688 C 2864.679688 3047.679688 2814.621094 2999.199219 2786.558594 2926.390625 C 2812.589844 2936.421875 2841.71875 2943.640625 2872.859375 2947.371094 Z M 2861.808594 2731.230469 C 2860.710938 2750.460938 2860.121094 2770.539062 2860.121094 2791.179688 C 2860.121094 2811.820312 2860.710938 2831.898438 2861.808594 2851.128906 C 2826.289062 2849.089844 2793.640625 2845.269531 2765.578125 2840.078125 C 2763.679688 2824.25 2762.691406 2807.898438 2762.691406 2791.179688 C 2762.691406 2774.460938 2763.679688 2758.109375 2765.578125 2742.28125 C 2793.640625 2737.101562 2826.289062 2733.28125 2861.808594 2731.230469 Z M 2921.761719 2534.679688 C 2901.839844 2534.679688 2884.128906 2574 2872.859375 2635 C 2841.71875 2638.71875 2812.589844 2645.941406 2786.558594 2655.980469 C 2814.621094 2583.160156 2864.679688 2534.679688 2921.761719 2534.679688" fill-opacity="1" fill="rgb(5.447388%, 5.892944%, 5.529785%)" fill-rule="evenodd"/>
<path d="M 3600.21875 2903.78125 C 3565.730469 2938.148438 3518.148438 2959.398438 3465.609375 2959.398438 C 3360.28125 2959.398438 3274.898438 2874.019531 3274.898438 2768.699219 C 3274.898438 2685.980469 3327.570312 2615.570312 3401.199219 2589.148438 C 3366.550781 2623.679688 3345.101562 2671.449219 3345.101562 2724.238281 C 3345.101562 2829.558594 3430.480469 2914.941406 3535.808594 2914.941406 C 3558.410156 2914.941406 3580.101562 2911 3600.21875 2903.78125" fill-opacity="1" fill="rgb(5.447388%, 5.892944%, 5.529785%)" fill-rule="evenodd"/>
<path d="M 3603.128906 2906.710938 C 3585.191406 2924.601562 3563.761719 2939.011719 3539.949219 2948.839844 C 3517.019531 2958.320312 3491.910156 2963.550781 3465.609375 2963.550781 C 3411.800781 2963.550781 3363.089844 2941.738281 3327.828125 2906.480469 C 3292.570312 2871.21875 3270.761719 2822.5 3270.761719 2768.699219 C 3270.761719 2727.03125 3283.839844 2688.421875 3306.128906 2656.738281 C 3329.03125 2624.179688 3361.660156 2598.949219 3399.800781 2585.269531 C 3401.949219 2584.5 3404.308594 2585.621094 3405.078125 2587.761719 C 3405.640625 2589.320312 3405.210938 2590.988281 3404.109375 2592.078125 C 3386.851562 2609.289062 3372.929688 2629.871094 3363.429688 2652.75 C 3354.289062 2674.75 3349.25 2698.898438 3349.25 2724.238281 C 3349.25 2775.75 3370.128906 2822.398438 3403.890625 2856.160156 C 3437.648438 2889.921875 3484.289062 2910.800781 3535.808594 2910.800781 C 3546.761719 2910.800781 3557.46875 2909.859375 3567.859375 2908.058594 C 3578.550781 2906.199219 3588.898438 2903.449219 3598.828125 2899.890625 C 3600.96875 2899.121094 3603.339844 2900.238281 3604.109375 2902.390625 C 3604.660156 2903.941406 3604.230469 2905.609375 3603.128906 2906.710938 Z M 3536.808594 2941.199219 C 3553.859375 2934.160156 3569.640625 2924.648438 3583.710938 2913.140625 C 3578.949219 2914.339844 3574.128906 2915.371094 3569.25 2916.21875 C 3558.359375 2918.101562 3547.191406 2919.089844 3535.808594 2919.089844 C 3482 2919.089844 3433.289062 2897.28125 3398.03125 2862.019531 C 3362.769531 2826.761719 3340.960938 2778.039062 3340.960938 2724.238281 C 3340.960938 2697.800781 3346.230469 2672.578125 3355.78125 2649.570312 C 3363.269531 2631.558594 3373.378906 2614.898438 3385.640625 2600.089844 C 3356.410156 2613.980469 3331.359375 2635.25 3312.898438 2661.5 C 3291.570312 2691.820312 3279.050781 2728.789062 3279.050781 2768.699219 C 3279.050781 2820.210938 3299.929688 2866.859375 3333.691406 2900.621094 C 3367.449219 2934.378906 3414.089844 2955.261719 3465.609375 2955.261719 C 3490.851562 2955.261719 3514.890625 2950.261719 3536.808594 2941.199219" fill-opacity="1" fill="rgb(100%, 100%, 100%)" fill-rule="nonzero"/>
<path d="M 3502.789062 2913.800781 C 3454.089844 2913.71875 3405.421875 2895.101562 3368.269531 2857.949219 C 3293.800781 2783.46875 3293.800781 2662.730469 3368.269531 2588.25 C 3426.761719 2529.761719 3513.789062 2517.21875 3584.53125 2550.601562 C 3535.609375 2550.519531 3486.671875 2569.128906 3449.351562 2606.449219 C 3374.871094 2680.929688 3374.871094 2801.679688 3449.351562 2876.148438 C 3465.328125 2892.140625 3483.449219 2904.679688 3502.789062 2913.800781" fill-opacity="1" fill="rgb(5.447388%, 5.892944%, 5.529785%)" fill-rule="evenodd"/>
<path d="M 3502.511719 2917.929688 C 3477.238281 2917.851562 3451.988281 2912.898438 3428.308594 2903.058594 C 3405.398438 2893.550781 3383.949219 2879.488281 3365.339844 2860.878906 C 3327.289062 2822.828125 3308.269531 2772.960938 3308.269531 2723.101562 C 3308.269531 2673.238281 3327.289062 2623.371094 3365.339844 2585.320312 C 3394.800781 2555.859375 3431.371094 2537.808594 3469.53125 2531.160156 C 3508.738281 2524.328125 3549.648438 2529.570312 3586.300781 2546.859375 C 3588.359375 2547.828125 3589.238281 2550.300781 3588.269531 2552.371094 C 3587.53125 2553.941406 3585.921875 2554.828125 3584.28125 2554.730469 C 3559.980469 2554.71875 3535.671875 2559.429688 3512.851562 2568.859375 C 3490.839844 2577.949219 3470.199219 2591.460938 3452.28125 2609.378906 C 3415.851562 2645.808594 3397.640625 2693.558594 3397.640625 2741.300781 C 3397.640625 2789.050781 3415.851562 2836.789062 3452.28125 2873.21875 C 3460.019531 2880.960938 3468.25 2887.871094 3476.871094 2893.941406 C 3485.71875 2900.171875 3494.988281 2905.550781 3504.550781 2910.058594 C 3506.621094 2911.039062 3507.5 2913.5 3506.53125 2915.570312 C 3505.78125 2917.148438 3504.160156 2918.039062 3502.511719 2917.929688 Z M 3431.480469 2895.421875 C 3448.53125 2902.5 3466.410156 2906.941406 3484.5 2908.75 C 3480.289062 2906.238281 3476.148438 2903.558594 3472.109375 2900.710938 C 3463.070312 2894.339844 3454.460938 2887.128906 3446.421875 2879.078125 C 3408.371094 2841.039062 3389.351562 2791.171875 3389.351562 2741.300781 C 3389.351562 2691.441406 3408.371094 2641.570312 3446.421875 2603.519531 C 3465.101562 2584.839844 3486.671875 2570.730469 3509.710938 2561.210938 C 3527.730469 2553.769531 3546.648438 2549.140625 3565.789062 2547.339844 C 3535.300781 2536.488281 3502.539062 2533.820312 3470.929688 2539.320312 C 3434.410156 2545.679688 3399.421875 2562.960938 3371.199219 2591.179688 C 3334.78125 2627.609375 3316.558594 2675.359375 3316.558594 2723.101562 C 3316.558594 2770.851562 3334.78125 2818.589844 3371.199219 2855.019531 C 3389.039062 2872.859375 3409.570312 2886.320312 3431.480469 2895.421875" fill-opacity="1" fill="rgb(100%, 100%, 100%)" fill-rule="nonzero"/>
<path d="M 3426.808594 2852 C 3392.429688 2817.5 3371.179688 2769.929688 3371.179688 2717.390625 C 3371.179688 2612.058594 3456.558594 2526.679688 3561.890625 2526.679688 C 3644.609375 2526.679688 3715.011719 2579.351562 3741.429688 2652.96875 C 3706.898438 2618.320312 3659.128906 2596.878906 3606.351562 2596.878906 C 3501.019531 2596.878906 3415.640625 2682.261719 3415.640625 2787.589844 C 3415.640625 2810.191406 3419.589844 2831.871094 3426.808594 2852" fill-opacity="1" fill="rgb(5.447388%, 5.892944%, 5.529785%)" fill-rule="evenodd"/>
<path d="M 3423.871094 2854.910156 C 3405.988281 2836.960938 3391.578125 2815.53125 3381.738281 2791.730469 C 3372.261719 2768.800781 3367.039062 2743.691406 3367.039062 2717.390625 C 3367.039062 2663.578125 3388.851562 2614.871094 3424.109375 2579.609375 C 3459.371094 2544.351562 3508.078125 2522.53125 3561.890625 2522.53125 C 3603.550781 2522.53125 3642.171875 2535.621094 3673.851562 2557.910156 C 3706.398438 2580.808594 3731.628906 2613.441406 3745.320312 2651.578125 C 3746.078125 2653.730469 3744.96875 2656.089844 3742.820312 2656.859375 C 3741.269531 2657.421875 3739.601562 2656.988281 3738.5 2655.890625 C 3721.289062 2638.621094 3700.71875 2624.710938 3677.839844 2615.210938 C 3655.839844 2606.070312 3631.691406 2601.019531 3606.351562 2601.019531 C 3554.828125 2601.019531 3508.191406 2621.910156 3474.429688 2655.671875 C 3440.660156 2689.441406 3419.769531 2736.078125 3419.769531 2787.589844 L 3419.789062 2787.589844 C 3419.789062 2798.53125 3420.730469 2809.238281 3422.53125 2819.640625 C 3424.378906 2830.328125 3427.128906 2840.679688 3430.691406 2850.601562 C 3431.460938 2852.75 3430.339844 2855.121094 3428.199219 2855.878906 C 3426.640625 2856.441406 3424.96875 2856.011719 3423.878906 2854.910156 Z M 3389.378906 2788.589844 C 3396.429688 2805.628906 3405.929688 2821.421875 3417.449219 2835.488281 C 3416.238281 2830.730469 3415.210938 2825.910156 3414.371094 2821.03125 C 3412.480469 2810.140625 3411.488281 2798.96875 3411.488281 2787.589844 L 3411.511719 2787.589844 C 3411.511719 2733.769531 3433.320312 2685.058594 3468.570312 2649.800781 C 3503.828125 2614.539062 3552.539062 2592.730469 3606.351562 2592.730469 C 3632.78125 2592.730469 3658 2598.011719 3681.011719 2607.558594 C 3699.03125 2615.039062 3715.679688 2625.148438 3730.488281 2637.421875 C 3716.601562 2608.191406 3695.328125 2583.140625 3669.089844 2564.679688 C 3638.769531 2543.351562 3601.800781 2530.820312 3561.890625 2530.820312 C 3510.371094 2530.820312 3463.730469 2551.710938 3429.96875 2585.46875 C 3396.210938 2619.230469 3375.328125 2665.871094 3375.328125 2717.390625 C 3375.328125 2742.621094 3380.320312 2766.671875 3389.378906 2788.589844" fill-opacity="1" fill="rgb(100%, 100%, 100%)" fill-rule="nonzero"/>
<path d="M 3416.78125 2754.570312 C 3416.871094 2705.871094 3435.480469 2657.199219 3472.628906 2620.050781 C 3547.109375 2545.570312 3667.859375 2545.570312 3742.328125 2620.050781 C 3800.820312 2678.539062 3813.371094 2765.570312 3779.980469 2836.308594 C 3780.070312 2787.390625 3761.449219 2738.449219 3724.128906 2701.128906 C 3649.660156 2626.648438 3528.910156 2626.648438 3454.429688 2701.128906 C 3438.449219 2717.109375 3425.898438 2735.230469 3416.78125 2754.570312" fill-opacity="1" fill="rgb(5.447388%, 5.892944%, 5.529785%)" fill-rule="evenodd"/>
<path d="M 3412.648438 2754.289062 C 3412.730469 2729.019531 3417.691406 2703.769531 3427.519531 2680.089844 C 3437.03125 2657.179688 3451.089844 2635.730469 3469.699219 2617.121094 C 3507.75 2579.070312 3557.621094 2560.050781 3607.480469 2560.050781 C 3657.351562 2560.050781 3707.21875 2579.070312 3745.261719 2617.121094 C 3774.71875 2646.578125 3792.78125 2683.140625 3799.421875 2721.308594 C 3806.25 2760.519531 3801.019531 2801.429688 3783.71875 2838.070312 C 3782.75 2840.140625 3780.28125 2841.019531 3778.21875 2840.050781 C 3776.640625 2839.308594 3775.761719 2837.699219 3775.851562 2836.058594 C 3775.859375 2811.761719 3771.148438 2787.449219 3761.730469 2764.628906 C 3752.628906 2742.621094 3739.128906 2721.980469 3721.199219 2704.058594 C 3684.769531 2667.628906 3637.03125 2649.410156 3589.28125 2649.410156 C 3541.539062 2649.410156 3493.789062 2667.628906 3457.359375 2704.058594 C 3449.621094 2711.800781 3442.710938 2720.03125 3436.648438 2728.640625 C 3430.410156 2737.5 3425.039062 2746.769531 3420.519531 2756.328125 C 3419.550781 2758.398438 3417.078125 2759.28125 3415.011719 2758.308594 C 3413.429688 2757.558594 3412.539062 2755.941406 3412.648438 2754.289062 Z M 3435.160156 2683.261719 C 3428.089844 2700.308594 3423.640625 2718.191406 3421.839844 2736.269531 C 3424.351562 2732.070312 3427.03125 2727.929688 3429.878906 2723.878906 C 3436.25 2714.839844 3443.449219 2706.238281 3451.5 2698.191406 C 3489.550781 2660.148438 3539.421875 2641.121094 3589.28125 2641.121094 C 3639.148438 2641.121094 3689.011719 2660.148438 3727.058594 2698.191406 C 3745.75 2716.878906 3759.851562 2738.449219 3769.371094 2761.488281 C 3776.820312 2779.511719 3781.441406 2798.429688 3783.25 2817.570312 C 3794.089844 2787.070312 3796.769531 2754.320312 3791.261719 2722.710938 C 3784.910156 2686.191406 3767.621094 2651.199219 3739.398438 2622.980469 C 3702.980469 2586.550781 3655.230469 2568.339844 3607.480469 2568.339844 C 3559.738281 2568.339844 3511.988281 2586.550781 3475.558594 2622.980469 C 3457.730469 2640.820312 3444.261719 2661.351562 3435.160156 2683.261719" fill-opacity="1" fill="rgb(100%, 100%, 100%)" fill-rule="nonzero"/>
<path d="M 3478.589844 2678.578125 C 3513.078125 2644.210938 3560.648438 2622.960938 3613.199219 2622.960938 C 3718.519531 2622.960938 3803.898438 2708.339844 3803.898438 2813.671875 C 3803.898438 2896.378906 3751.238281 2966.789062 3677.609375 2993.210938 C 3712.261719 2958.679688 3733.699219 2910.910156 3733.699219 2858.121094 C 3733.699219 2752.800781 3648.320312 2667.421875 3543 2667.421875 C 3520.390625 2667.421875 3498.710938 2671.359375 3478.589844 2678.578125" fill-opacity="1" fill="rgb(5.447388%, 5.892944%, 5.529785%)" fill-rule="evenodd"/>
<path d="M 3475.671875 2675.648438 C 3493.621094 2657.769531 3515.050781 2643.351562 3538.851562 2633.519531 C 3561.78125 2624.039062 3586.890625 2618.808594 3613.199219 2618.808594 C 3667 2618.808594 3715.71875 2640.621094 3750.980469 2675.878906 C 3786.238281 2711.148438 3808.050781 2759.859375 3808.050781 2813.671875 C 3808.050781 2855.328125 3794.960938 2893.941406 3772.679688 2925.628906 C 3749.78125 2958.179688 3717.140625 2983.410156 3679 2997.089844 C 3676.859375 2997.859375 3674.488281 2996.75 3673.71875 2994.601562 C 3673.160156 2993.039062 3673.601562 2991.371094 3674.699219 2990.28125 L 3674.691406 2990.28125 C 3691.960938 2973.070312 3705.878906 2952.5 3715.378906 2929.621094 C 3724.511719 2907.609375 3729.558594 2883.460938 3729.558594 2858.121094 C 3729.558594 2806.609375 3708.679688 2759.960938 3674.921875 2726.210938 C 3641.148438 2692.441406 3594.5 2671.550781 3543 2671.550781 L 3543 2671.558594 C 3532.050781 2671.558594 3521.339844 2672.5 3510.949219 2674.300781 C 3500.25 2676.160156 3489.898438 2678.910156 3479.980469 2682.46875 C 3477.828125 2683.238281 3475.46875 2682.121094 3474.699219 2679.980469 C 3474.140625 2678.421875 3474.578125 2676.75 3475.671875 2675.660156 Z M 3541.988281 2641.160156 C 3524.949219 2648.199219 3509.171875 2657.710938 3495.101562 2669.230469 C 3499.859375 2668.019531 3504.679688 2666.988281 3509.558594 2666.140625 C 3520.441406 2664.261719 3531.621094 2663.269531 3543 2663.269531 L 3543 2663.289062 C 3596.808594 2663.289062 3645.53125 2685.089844 3680.78125 2720.339844 C 3716.039062 2755.609375 3737.851562 2804.320312 3737.851562 2858.121094 C 3737.851562 2884.558594 3732.570312 2909.78125 3723.019531 2932.789062 C 3715.539062 2950.800781 3705.429688 2967.460938 3693.171875 2982.269531 C 3722.390625 2968.378906 3747.441406 2947.109375 3765.910156 2920.871094 C 3787.238281 2890.550781 3799.761719 2853.570312 3799.761719 2813.671875 C 3799.761719 2762.148438 3778.878906 2715.511719 3745.121094 2681.75 C 3711.359375 2647.988281 3664.71875 2627.101562 3613.199219 2627.101562 C 3587.960938 2627.101562 3563.910156 2632.101562 3541.988281 2641.160156" fill-opacity="1" fill="rgb(100%, 100%, 100%)" fill-rule="nonzero"/>
<path d="M 3576.019531 2668.558594 C 3624.710938 2668.640625 3673.378906 2687.261719 3710.53125 2724.410156 C 3785.011719 2798.890625 3785.011719 2919.628906 3710.53125 2994.109375 C 3652.039062 3052.601562 3565.019531 3065.140625 3494.28125 3031.761719 C 3543.191406 3031.851562 3592.140625 3013.230469 3629.460938 2975.910156 C 3703.929688 2901.429688 3703.929688 2780.691406 3629.460938 2706.210938 C 3613.46875 2690.21875 3595.351562 2677.679688 3576.019531 2668.558594" fill-opacity="1" fill="rgb(5.447388%, 5.892944%, 5.529785%)" fill-rule="evenodd"/>
<path d="M 3576.289062 2664.429688 C 3601.570312 2664.511719 3626.808594 2669.46875 3650.5 2679.300781 C 3673.398438 2688.808594 3694.859375 2702.871094 3713.460938 2721.480469 C 3751.511719 2759.53125 3770.539062 2809.398438 3770.539062 2859.261719 C 3770.539062 2909.121094 3751.511719 2958.988281 3713.460938 2997.039062 C 3684 3026.5 3647.441406 3044.558594 3609.269531 3051.199219 C 3570.058594 3058.03125 3529.148438 3052.789062 3492.511719 3035.5 C 3490.441406 3034.53125 3489.558594 3032.058594 3490.53125 3030 C 3491.28125 3028.421875 3492.890625 3027.539062 3494.519531 3027.628906 C 3518.820312 3027.640625 3543.128906 3022.929688 3565.949219 3013.511719 C 3587.960938 3004.410156 3608.601562 2990.898438 3626.53125 2972.980469 C 3662.949219 2936.550781 3681.171875 2888.808594 3681.171875 2841.058594 C 3681.171875 2793.308594 3662.949219 2745.570312 3626.53125 2709.140625 C 3618.789062 2701.398438 3610.550781 2694.488281 3601.941406 2688.429688 C 3593.089844 2682.191406 3583.820312 2676.808594 3574.25 2672.300781 C 3572.191406 2671.328125 3571.300781 2668.859375 3572.28125 2666.789062 C 3573.019531 2665.210938 3574.640625 2664.320312 3576.289062 2664.429688 Z M 3647.320312 2686.941406 C 3630.269531 2679.859375 3612.390625 2675.421875 3594.308594 2673.609375 C 3598.519531 2676.121094 3602.648438 2678.800781 3606.699219 2681.660156 C 3615.738281 2688.019531 3624.339844 2695.230469 3632.390625 2703.28125 C 3670.441406 2741.328125 3689.460938 2791.191406 3689.460938 2841.058594 C 3689.460938 2890.921875 3670.441406 2940.789062 3632.390625 2978.839844 C 3613.699219 2997.53125 3592.128906 3011.628906 3569.101562 3021.148438 C 3551.070312 3028.589844 3532.148438 3033.21875 3513.019531 3035.019531 C 3543.511719 3045.871094 3576.269531 3048.539062 3607.878906 3043.039062 C 3644.390625 3036.679688 3679.390625 3019.398438 3707.601562 2991.179688 C 3744.03125 2954.75 3762.25 2907.011719 3762.25 2859.261719 C 3762.25 2811.519531 3744.03125 2763.769531 3707.601562 2727.339844 C 3689.769531 2709.511719 3669.230469 2696.039062 3647.320312 2686.941406" fill-opacity="1" fill="rgb(100%, 100%, 100%)" fill-rule="nonzero"/>
<path d="M 3652 2730.359375 C 3686.371094 2764.859375 3707.621094 2812.429688 3707.621094 2864.980469 C 3707.621094 2970.300781 3622.238281 3055.679688 3516.921875 3055.679688 C 3434.199219 3055.679688 3363.789062 3003.011719 3337.378906 2929.390625 C 3371.910156 2964.039062 3419.679688 2985.480469 3472.460938 2985.480469 C 3577.78125 2985.480469 3663.160156 2900.101562 3663.160156 2794.78125 C 3663.160156 2772.171875 3659.21875 2750.488281 3652 2730.359375" fill-opacity="1" fill="rgb(5.447388%, 5.892944%, 5.529785%)" fill-rule="evenodd"/>
<path d="M 3654.929688 2727.449219 C 3672.820312 2745.398438 3687.230469 2766.828125 3697.070312 2790.628906 C 3706.539062 2813.558594 3711.769531 2838.671875 3711.769531 2864.980469 C 3711.769531 2918.78125 3689.960938 2967.5 3654.699219 3002.761719 C 3619.441406 3038.019531 3570.71875 3059.828125 3516.921875 3059.828125 C 3475.261719 3059.828125 3436.640625 3046.738281 3404.960938 3024.460938 C 3372.398438 3001.550781 3347.171875 2968.921875 3333.488281 2930.78125 C 3332.71875 2928.628906 3333.839844 2926.269531 3335.980469 2925.5 C 3337.539062 2924.941406 3339.210938 2925.378906 3340.300781 2926.480469 L 3340.308594 2926.46875 C 3357.511719 2943.738281 3378.089844 2957.648438 3400.96875 2967.160156 C 3422.96875 2976.289062 3447.121094 2981.339844 3472.460938 2981.339844 C 3523.980469 2981.339844 3570.621094 2960.460938 3604.378906 2926.699219 C 3638.148438 2892.929688 3659.039062 2846.28125 3659.039062 2794.78125 L 3659.019531 2794.78125 C 3659.019531 2783.828125 3658.078125 2773.121094 3656.28125 2762.730469 C 3654.421875 2752.03125 3651.671875 2741.679688 3648.109375 2731.761719 C 3647.351562 2729.609375 3648.460938 2727.25 3650.609375 2726.480469 C 3652.160156 2725.921875 3653.828125 2726.351562 3654.929688 2727.449219 Z M 3689.421875 2793.769531 C 3682.378906 2776.730469 3672.878906 2760.949219 3661.359375 2746.878906 C 3662.558594 2751.628906 3663.589844 2756.460938 3664.441406 2761.328125 C 3666.328125 2772.21875 3667.308594 2783.390625 3667.308594 2794.78125 L 3667.289062 2794.78125 C 3667.289062 2848.589844 3645.488281 2897.308594 3610.238281 2932.558594 C 3574.980469 2967.820312 3526.261719 2989.628906 3472.460938 2989.628906 C 3446.019531 2989.628906 3420.800781 2984.351562 3397.789062 2974.800781 C 3379.78125 2967.320312 3363.128906 2957.210938 3348.308594 2944.949219 C 3362.199219 2974.171875 3383.46875 2999.21875 3409.71875 3017.679688 C 3440.039062 3039.011719 3477.011719 3051.539062 3516.921875 3051.539062 C 3568.441406 3051.539062 3615.078125 3030.648438 3648.839844 2996.890625 C 3682.601562 2963.140625 3703.480469 2916.488281 3703.480469 2864.980469 C 3703.480469 2839.738281 3698.480469 2815.691406 3689.421875 2793.769531" fill-opacity="1" fill="rgb(100%, 100%, 100%)" fill-rule="nonzero"/>
<path d="M 3662.03125 2827.800781 C 3661.941406 2876.488281 3643.328125 2925.160156 3606.171875 2962.308594 C 3531.699219 3036.789062 3410.949219 3036.789062 3336.46875 2962.308594 C 3296.441406 2922.28125 3277.941406 2868.890625 3280.941406 2816.5 C 3302.160156 2898.691406 3376.789062 2959.398438 3465.609375 2959.398438 C 3518.148438 2959.398438 3565.730469 2938.148438 3600.21875 2903.78125 C 3598.238281 2904.488281 3596.25 2905.171875 3594.238281 2905.808594 C 3604.898438 2898.800781 3615 2890.609375 3624.371094 2881.238281 C 3640.359375 2865.25 3652.898438 2847.128906 3662.03125 2827.800781" fill-opacity="1" fill="rgb(5.447388%, 5.892944%, 5.529785%)" fill-rule="evenodd"/>
<path d="M 3666.148438 2828.070312 C 3666.078125 2853.339844 3661.121094 2878.589844 3651.289062 2902.269531 C 3641.769531 2925.179688 3627.710938 2946.628906 3609.101562 2965.238281 C 3571.058594 3003.289062 3521.191406 3022.308594 3471.320312 3022.308594 C 3421.460938 3022.308594 3371.589844 3003.289062 3333.539062 2965.238281 C 3313.488281 2945.191406 3298.71875 2921.851562 3289.238281 2896.941406 C 3279.390625 2871.089844 3275.25 2843.550781 3276.808594 2816.269531 C 3276.941406 2813.988281 3278.890625 2812.25 3281.171875 2812.371094 C 3283.101562 2812.480469 3284.648438 2813.890625 3285 2815.710938 C 3295.519531 2856.238281 3319.339844 2891.429688 3351.519531 2916.339844 C 3383.050781 2940.738281 3422.628906 2955.261719 3465.609375 2955.261719 C 3490.851562 2955.261719 3514.890625 2950.261719 3536.808594 2941.199219 C 3556.621094 2933.011719 3574.71875 2921.511719 3590.421875 2907.371094 C 3590.378906 2907.28125 3590.339844 2907.179688 3590.308594 2907.070312 C 3589.699219 2905.191406 3590.519531 2903.191406 3592.171875 2902.238281 C 3597.328125 2898.828125 3602.378906 2895.121094 3607.300781 2891.109375 C 3612.109375 2887.179688 3616.839844 2882.910156 3621.441406 2878.308594 C 3629.191406 2870.558594 3636.089844 2862.328125 3642.160156 2853.71875 C 3648.398438 2844.871094 3653.769531 2835.589844 3658.28125 2826.03125 C 3659.261719 2823.96875 3661.730469 2823.078125 3663.789062 2824.050781 C 3665.371094 2824.800781 3666.261719 2826.421875 3666.148438 2828.070312 Z M 3643.640625 2899.101562 C 3650.71875 2882.050781 3655.160156 2864.171875 3656.96875 2846.089844 C 3654.460938 2850.300781 3651.78125 2854.429688 3648.929688 2858.480469 C 3642.558594 2867.519531 3635.351562 2876.121094 3627.300781 2884.171875 C 3622.621094 2888.859375 3617.679688 2893.308594 3612.511719 2897.519531 C 3609.839844 2899.699219 3607.121094 2901.800781 3604.351562 2903.820312 C 3604.339844 2904.871094 3603.941406 2905.910156 3603.128906 2906.710938 C 3585.191406 2924.601562 3563.761719 2939.011719 3539.949219 2948.839844 C 3517.019531 2958.320312 3491.910156 2963.550781 3465.609375 2963.550781 C 3420.75 2963.550781 3379.421875 2948.371094 3346.46875 2922.878906 C 3319.710938 2902.171875 3298.488281 2874.640625 3285.398438 2842.890625 C 3286.839844 2860.269531 3290.691406 2877.488281 3296.980469 2894 C 3306.050781 2917.820312 3320.199219 2940.171875 3339.398438 2959.378906 C 3375.828125 2995.808594 3423.578125 3014.019531 3471.320312 3014.019531 C 3519.070312 3014.019531 3566.808594 2995.808594 3603.238281 2959.378906 C 3621.078125 2941.550781 3634.539062 2921.011719 3643.640625 2899.101562" fill-opacity="1" fill="rgb(100%, 100%, 100%)" fill-rule="nonzero"/>
</svg>